<?xml version="1.0" encoding="UTF-8"?>
<svg width="644px" height="485px" viewBox="0 0 644 485" version="1.1" xmlns="http://www.w3.org/2000/svg" xmlns:xlink="http://www.w3.org/1999/xlink">
    <!-- Generator: Sketch 52.3 (67297) - http://www.bohemiancoding.com/sketch -->
    <title>Group</title>
    <desc>Created with Sketch.</desc>
    <g id="Page-1-Copy" stroke="none" stroke-width="1" fill="none" fill-rule="evenodd">
        <g id="calendar_" transform="translate(371.000000, 430.000000)" fill="#5EB8DF" fill-rule="nonzero">
            <path d="M18.2962963,1.67747748 L16.3083333,1.67747748 L16.3083333,0.684684685 C16.3083333,0.308108108 15.9916667,0 15.6046296,0 C15.2175926,0 14.9009259,0.308108108 14.9009259,0.684684685 L14.9009259,1.67747748 L10.2212963,1.67747748 L10.2212963,0.684684685 C10.2212963,0.308108108 9.90462963,0 9.51759259,0 C9.13055556,0 8.81388889,0.308108108 8.81388889,0.684684685 L8.81388889,1.67747748 L4.09907407,1.67747748 L4.09907407,0.684684685 C4.09907407,0.308108108 3.78240741,0 3.39537037,0 C3.00833333,0 2.69166667,0.308108108 2.69166667,0.684684685 L2.69166667,1.67747748 L0.703703704,1.67747748 C0.316666667,1.67747748 0,1.98558559 0,2.36216216 L0,18.2810811 C0,18.6576577 0.316666667,18.9657658 0.703703704,18.9657658 L18.2962963,18.9657658 C18.6833333,18.9657658 19,18.6576577 19,18.2810811 L19,2.36216216 C19,1.96846847 18.6833333,1.67747748 18.2962963,1.67747748 Z M17.5925926,17.5963964 L1.40740741,17.5963964 L1.40740741,7.83963964 L17.5925926,7.83963964 L17.5925926,17.5963964 Z M17.5925926,6.47027027 L1.40740741,6.47027027 L1.40740741,3.04684685 L2.69166667,3.04684685 L2.69166667,4.03963964 C2.69166667,4.41621622 3.00833333,4.72432432 3.39537037,4.72432432 C3.78240741,4.72432432 4.09907407,4.41621622 4.09907407,4.03963964 L4.09907407,3.04684685 L8.81388889,3.04684685 L8.81388889,4.03963964 C8.81388889,4.41621622 9.13055556,4.72432432 9.51759259,4.72432432 C9.90462963,4.72432432 10.2212963,4.41621622 10.2212963,4.03963964 L10.2212963,3.04684685 L14.9009259,3.04684685 L14.9009259,4.03963964 C14.9009259,4.41621622 15.2175926,4.72432432 15.6046296,4.72432432 C15.9916667,4.72432432 16.3083333,4.41621622 16.3083333,4.03963964 L16.3083333,3.04684685 L17.5925926,3.04684685 L17.5925926,6.47027027 Z" id="Shape"></path>
            <path d="M9.5,16.7747748 C9.41203704,16.7747748 9.30648148,16.7576577 9.21851852,16.7234234 C4.60925926,14.7720721 4.55648148,11.8963964 4.57407407,11.5198198 C4.57407407,9.97927928 5.96388889,8.6954955 7.58240741,8.6954955 C8.3212963,8.6954955 9.025,8.96936937 9.57037037,9.44864865 C10.1157407,8.98648649 10.8546296,8.6954955 11.6111111,8.6954955 C13.1944444,8.6954955 14.4435185,9.94504505 14.4435185,11.5198198 C14.4611111,11.8792793 14.4083333,14.7720721 9.78148148,16.7063063 C9.69351852,16.7576577 9.60555556,16.7747748 9.5,16.7747748 Z M7.58240741,10.0648649 C6.72037037,10.0648649 5.98148148,10.7495495 5.98148148,11.5369369 C5.98148148,11.5540541 5.98148148,11.5711712 5.98148148,11.5882883 C5.98148148,11.6738739 5.9287037,13.7279279 9.5,15.3369369 C13.0712963,13.7279279 13.0361111,11.6054054 13.0361111,11.5882883 C13.0361111,11.5711712 13.0361111,11.5540541 13.0361111,11.5369369 C13.0361111,10.6981982 12.4203704,10.0648649 11.6111111,10.0648649 C11.0305556,10.0648649 10.4324074,10.3900901 10.1861111,10.8522523 C10.062963,11.0747748 9.81666667,11.2117117 9.57037037,11.2117117 C9.30648148,11.2117117 9.07777778,11.0747748 8.95462963,10.8522523 C8.65555556,10.372973 8.14537037,10.0648649 7.58240741,10.0648649 Z" id="Shape"></path>
        </g>
        <g id="camera_love" transform="translate(94.000000, 91.000000)" fill="#20C23B" fill-rule="nonzero">
            <path d="M15.3447619,5.85981308 C15.2542857,5.85981308 15.1457143,5.84205607 15.0552381,5.80654206 C11.9428571,4.47476636 11.8342857,2.48598131 11.8342857,2.13084112 C11.8342857,0.976635514 12.8657143,0 14.0780952,0 C14.5666667,0 15.0190476,0.159813084 15.3809524,0.426168224 C15.7609524,0.159813084 16.2314286,0 16.72,0 C17.9142857,0 18.8371429,0.941121495 18.8371429,2.13084112 C18.8371429,2.4682243 18.7285714,4.47476636 15.6161905,5.78878505 C15.5438095,5.84205607 15.4352381,5.85981308 15.3447619,5.85981308 Z M13.2819048,2.18411215 C13.2819048,2.30841121 13.3542857,3.4271028 15.3266667,4.3682243 C17.3171429,3.4271028 17.3895238,2.30841121 17.3895238,2.18411215 C17.3895238,2.16635514 17.3895238,2.16635514 17.3895238,2.14859813 C17.3895238,1.74018692 17.1,1.42056075 16.72,1.42056075 C16.4304762,1.42056075 16.1409524,1.58037383 16.0142857,1.81121495 C15.887619,2.04205607 15.6342857,2.18411215 15.3809524,2.18411215 C15.1095238,2.18411215 14.8742857,2.04205607 14.747619,1.81121495 C14.6028571,1.56261682 14.3495238,1.42056075 14.0780952,1.42056075 C13.6619048,1.42056075 13.2819048,1.75794393 13.2819048,2.14859813 C13.2819048,2.16635514 13.2819048,2.16635514 13.2819048,2.18411215 Z" id="Shape"></path>
            <path d="M7.29238095,16.7271028 C5.37428571,16.7271028 3.81809524,15.2 3.81809524,13.317757 C3.81809524,11.435514 5.37428571,9.90841121 7.29238095,9.90841121 C9.21047619,9.90841121 10.7847619,11.435514 10.7847619,13.317757 C10.7847619,15.2 9.21047619,16.7271028 7.29238095,16.7271028 Z M7.29238095,11.328972 C6.17047619,11.328972 5.26571429,12.2168224 5.26571429,13.317757 C5.26571429,14.4186916 6.17047619,15.3065421 7.29238095,15.3065421 C8.41428571,15.3065421 9.33714286,14.4186916 9.33714286,13.317757 C9.33714286,12.2168224 8.41428571,11.328972 7.29238095,11.328972 Z" id="Shape"></path>
            <path d="M15.1457143,18.8757009 L0.723809524,18.8757009 C0.325714286,18.8757009 0,18.5560748 0,18.1654206 L0,8.82523364 C0,8.43457944 0.325714286,8.11495327 0.723809524,8.11495327 L3.89047619,8.11495327 L3.89047619,6.21495327 C3.89047619,5.82429907 4.21619048,5.5046729 4.61428571,5.5046729 L9.98857143,5.5046729 C10.3866667,5.5046729 10.712381,5.82429907 10.712381,6.21495327 L10.712381,8.11495327 L15.1457143,8.11495327 C15.5438095,8.11495327 15.8695238,8.43457944 15.8695238,8.82523364 L15.8695238,18.1654206 C15.8695238,18.5560748 15.5438095,18.8757009 15.1457143,18.8757009 Z M1.44761905,17.4551402 L14.4219048,17.4551402 L14.4219048,9.53551402 L9.98857143,9.53551402 C9.59047619,9.53551402 9.2647619,9.21588785 9.2647619,8.82523364 L9.2647619,6.92523364 L5.33809524,6.92523364 L5.33809524,8.82523364 C5.33809524,9.21588785 5.01238095,9.53551402 4.61428571,9.53551402 L1.44761905,9.53551402 L1.44761905,17.4551402 Z" id="Shape"></path>
        </g>
        <g id="candle" transform="translate(56.000000, 254.000000)" fill="#26DFE3">
            <path d="M14.2329545,18.8240741 L0.681818182,18.8240741 C0.306818182,18.8240741 0,18.5074074 0,18.1203704 C0,17.7333333 0.306818182,17.4166667 0.681818182,17.4166667 L14.2329545,17.4166667 C14.6079545,17.4166667 14.9147727,17.7333333 14.9147727,18.1203704 C14.9147727,18.5074074 14.6079545,18.8240741 14.2329545,18.8240741 Z" id="Path"></path>
            <path d="M13.2443182,7.67037037 L7.99431818,7.67037037 L7.99431818,5.91111111 C8.16477273,5.96388889 8.35227273,5.98148148 8.53977273,5.98148148 C9.68181818,5.98148148 10.6363636,5.01388889 10.6534091,3.87037037 C10.6534091,3.71203704 10.6534091,3.16666667 10.2954545,2.48055556 C9.80113636,1.54814815 8.91477273,0.791666667 7.63636364,0.211111111 C7.46590909,0.140740741 7.26136364,0.140740741 7.09090909,0.211111111 C4.14204545,1.54814815 4.03977273,3.53611111 4.03977273,3.87037037 C4.03977273,5.06666667 4.92613636,5.98148148 6.05113636,5.98148148 C6.25568182,5.98148148 6.44318182,5.9462963 6.63068182,5.89351852 L6.63068182,7.67037037 L2.96590909,7.67037037 C2.59090909,7.67037037 2.28409091,7.98703704 2.28409091,8.37407407 L2.28409091,16.3611111 C2.28409091,16.7481481 2.59090909,17.0648148 2.96590909,17.0648148 L11.7272727,17.0648148 C12.1022727,17.0648148 12.4090909,16.7481481 12.4090909,16.3611111 L12.4090909,14.1092593 C13.2954545,13.7925926 13.9261364,12.9305556 13.9261364,11.9101852 L13.9261364,8.37407407 C13.9261364,7.98703704 13.6193182,7.67037037 13.2443182,7.67037037 Z M6.05113636,4.57407407 C5.69318182,4.57407407 5.40340909,4.25740741 5.40340909,3.85277778 C5.40340909,3.83518519 5.40340909,3.81759259 5.40340909,3.8 C5.40340909,3.78240741 5.42045455,2.6037037 7.34659091,1.63611111 C9.20454545,2.58611111 9.27272727,3.69444444 9.27272727,3.81759259 C9.27272727,3.83518519 9.27272727,3.83518519 9.27272727,3.87037037 C9.27272727,4.25740741 8.93181818,4.59166667 8.52272727,4.59166667 C8.26704545,4.59166667 8.02840909,4.45092593 7.90909091,4.20462963 C7.78977273,3.97592593 7.56818182,3.83518519 7.3125,3.83518519 C7.05681818,3.83518519 6.83522727,3.97592593 6.71590909,4.20462963 C6.59659091,4.41574074 6.30681818,4.57407407 6.05113636,4.57407407 Z M12.5625,11.9101852 C12.5625,12.4203704 12.1704545,12.825 11.6761364,12.825 C11.1818182,12.825 10.7897727,12.4203704 10.7897727,11.9101852 C10.7897727,11.5231481 10.4829545,11.2064815 10.1079545,11.2064815 C9.73295455,11.2064815 9.42613636,11.5231481 9.42613636,11.9101852 C9.42613636,12.9657407 10.1079545,13.862963 11.0454545,14.1444444 L11.0454545,15.6574074 L3.64772727,15.6574074 L3.64772727,9.07777778 L12.5625,9.07777778 L12.5625,11.9101852 Z" id="Shape" fill-rule="nonzero"></path>
        </g>
        <g id="candy_heart" transform="translate(19.000000, 143.000000)" fill="#FF36B8">
            <path d="M7.05526316,11.5608247 C6.96315789,11.5608247 6.85263158,11.542268 6.76052632,11.5051546 C0.165789474,8.62886598 0.165789474,4.41649485 0.184210526,3.97113402 C0.202631579,1.8185567 2.06315789,0 4.27368421,0 C5.37894737,0 6.41052632,0.463917526 7.14736842,1.24329897 C7.90263158,0.463917526 8.98947368,0 10.1131579,0 C12.25,0 13.9447368,1.7443299 13.9447368,3.97113402 C13.9631579,4.41649485 13.9631579,8.62886598 7.36842105,11.5051546 C7.25789474,11.542268 7.16578947,11.5608247 7.05526316,11.5608247 Z M4.27368421,1.48453608 C2.85526316,1.48453608 1.65789474,2.63505155 1.65789474,3.98969072 C1.65789474,4.00824742 1.65789474,4.02680412 1.65789474,4.04536082 C1.65789474,4.17525773 1.54736842,7.49690722 7.05526316,10.0206186 C12.5631579,7.49690722 12.4710526,4.19381443 12.4526316,4.04536082 C12.4526316,4.02680412 12.4526316,4.00824742 12.4526316,4.00824742 C12.4710526,2.56082474 11.4578947,1.48453608 10.1131579,1.48453608 C9.15526316,1.48453608 8.19736842,2.04123711 7.79210526,2.82061856 C7.66315789,3.06185567 7.40526316,3.21030928 7.14736842,3.21030928 C6.87105263,3.21030928 6.63157895,3.06185567 6.50263158,2.82061856 C6.04210526,2.00412371 5.19473684,1.48453608 4.27368421,1.48453608 Z" id="Shape" fill-rule="nonzero"></path>
            <path d="M7.03684211,17.8329897 C6.63157895,17.8329897 6.3,17.4989691 6.3,17.0907216 L6.3,13.156701 C6.3,12.7484536 6.63157895,12.414433 7.03684211,12.414433 C7.44210526,12.414433 7.77368421,12.7484536 7.77368421,13.156701 L7.77368421,17.0721649 C7.77368421,17.4989691 7.46052632,17.8329897 7.03684211,17.8329897 Z" id="Path"></path>
        </g>
        <g id="candy" transform="translate(46.000000, 20.000000)" fill="#2693E3" fill-rule="nonzero">
            <path d="M17.2727273,2.67272727 C16.9090909,2.30909091 16.4363636,2.07272727 15.9454545,2 C15.8727273,1.50909091 15.6545455,1.05454545 15.2909091,0.690909091 C14.8545455,0.254545455 14.2363636,0 13.6181818,0 C13.0181818,0 12.4545455,0.218181818 12.0363636,0.636363636 C11.7818182,0.872727273 10.3636364,2.43636364 11.6,5.70909091 L9.72727273,3.83636364 C9.58181818,3.69090909 9.4,3.61818182 9.21818182,3.61818182 C9.03636364,3.61818182 8.83636364,3.69090909 8.70909091,3.83636364 L3.94545455,8.58181818 C3.65454545,8.87272727 3.65454545,9.32727273 3.94545455,9.61818182 L5.94545455,11.6363636 C5.03636364,11.2727273 4.18181818,11.1090909 3.4,11.1090909 C1.76363636,11.1090909 0.945454545,11.8727273 0.8,12.0545455 C-0.0545454545,12.9272727 -0.0363636364,14.4181818 0.854545455,15.3090909 C1.21818182,15.6727273 1.67272727,15.8909091 2.16363636,15.9636364 C2.23636364,16.4545455 2.47272727,16.9272727 2.83636364,17.3090909 C3.25454545,17.7272727 3.8,17.9636364 4.38181818,17.9636364 C4.98181818,17.9636364 5.56363636,17.7272727 6.01818182,17.2727273 C6.27272727,17.0363636 7.70909091,15.4545455 6.41818182,12.1272727 L8.43636364,14.1454545 C8.58181818,14.2909091 8.76363636,14.3636364 8.94545455,14.3636364 C9.12727273,14.3636364 9.32727273,14.2909091 9.45454545,14.1454545 L14.2,9.4 C14.4909091,9.10909091 14.4909091,8.65454545 14.2,8.36363636 L12.1636364,6.29090909 C13.0363636,6.61818182 13.8727273,6.8 14.6363636,6.8 C16.2727273,6.8 17.0727273,6.03636364 17.2363636,5.85454545 C18.1454545,4.94545455 18.1636364,3.54545455 17.2727273,2.67272727 Z M5.05454545,16.1818182 C5.03636364,16.2 5.03636364,16.2 5.01818182,16.2181818 C4.85454545,16.3818182 4.63636364,16.4909091 4.41818182,16.4909091 C4.27272727,16.4909091 4.07272727,16.4545455 3.89090909,16.2727273 C3.65454545,16.0545455 3.56363636,15.6727273 3.65454545,15.4 C3.72727273,15.1454545 3.67272727,14.8545455 3.47272727,14.6727273 C3.32727273,14.5272727 3.14545455,14.4545455 2.96363636,14.4545455 C2.89090909,14.4545455 2.81818182,14.4727273 2.74545455,14.4909091 C2.45454545,14.5818182 2.12727273,14.5090909 1.90909091,14.2909091 C1.58181818,13.9636364 1.54545455,13.3818182 1.87272727,13.0727273 C1.89090909,13.0545455 1.87272727,13.0727273 1.89090909,13.0545455 C1.90909091,13.0363636 2.36363636,12.5636364 3.43636364,12.5636364 C3.96363636,12.5636364 4.56363636,12.6727273 5.2,12.9090909 C6,15.2181818 5.07272727,16.1454545 5.05454545,16.1818182 Z M12.6727273,8.85454545 L8.96363636,12.5636364 L5.49090909,9.09090909 L9.2,5.38181818 L12.6727273,8.85454545 Z M16.2,4.83636364 C16.1818182,4.85454545 16.2,4.83636364 16.1818182,4.85454545 C16.1818182,4.85454545 16.0545455,4.98181818 15.8,5.10909091 C15.5454545,5.21818182 15.1636364,5.34545455 14.6363636,5.34545455 C14.1090909,5.34545455 13.5090909,5.23636364 12.8727273,5 C12.0545455,2.65454545 12.9818182,1.74545455 13,1.70909091 C13.0181818,1.69090909 13.0181818,1.69090909 13.0363636,1.67272727 C13.2,1.52727273 13.4,1.45454545 13.6181818,1.45454545 C13.8545455,1.45454545 14.1090909,1.54545455 14.2727273,1.72727273 C14.4909091,1.94545455 14.5636364,2.27272727 14.4727273,2.56363636 C14.4,2.81818182 14.4545455,3.10909091 14.6545455,3.29090909 C14.8545455,3.47272727 15.1272727,3.54545455 15.3818182,3.47272727 C15.4363636,3.45454545 15.5090909,3.43636364 15.6,3.43636364 C15.8363636,3.43636364 16.0909091,3.54545455 16.2545455,3.70909091 C16.5636364,4.01818182 16.5454545,4.49090909 16.2,4.83636364 Z" id="Shape"></path>
        </g>
        <g id="cart_" transform="translate(260.000000, 264.000000)" fill="#AD5EF7">
            <path d="M7.06226415,5.7 C6.97264151,5.7 6.86509434,5.68272727 6.7754717,5.64818182 C5.43113208,5.09545455 4.48113208,4.33545455 3.97924528,3.43727273 C3.60283019,2.76363636 3.58490566,2.22818182 3.60283019,2.07272727 C3.62075472,0.95 4.6245283,3.06825272e-16 5.8254717,3.06825272e-16 C6.29150943,3.06825272e-16 6.73962264,0.155454545 7.11603774,0.414545455 C7.4745283,0.155454545 7.94056604,0 8.4245283,0 C9.60754717,0 10.5216981,0.915454545 10.5216981,2.07272727 C10.5216981,2.40090909 10.4320755,4.35272727 7.33113208,5.63090909 C7.25943396,5.68272727 7.16981132,5.7 7.06226415,5.7 Z M5.03679245,2.12454545 C5.03679245,2.24545455 5.10849057,3.33363636 7.06226415,4.24909091 C9.03396226,3.33363636 9.10566038,2.24545455 9.10566038,2.12454545 C9.10566038,2.10727273 9.10566038,2.10727273 9.10566038,2.09 C9.10566038,1.67545455 8.81886792,1.38181818 8.4245283,1.38181818 C8.13773585,1.38181818 7.8509434,1.53727273 7.7254717,1.76181818 C7.6,1.98636364 7.3490566,2.12454545 7.09811321,2.12454545 C6.84716981,2.12454545 6.59622642,1.98636364 6.47075472,1.76181818 C6.34528302,1.52 6.09433962,1.38181818 5.8254717,1.38181818 C5.41320755,1.38181818 5.03679245,1.71 5.03679245,2.09 C5.03679245,2.10727273 5.03679245,2.10727273 5.03679245,2.12454545 Z" id="Shape" fill-rule="nonzero"></path>
            <path d="M14.0528302,6.27 C13.9632075,6.27 13.8556604,6.25272727 13.7660377,6.21818182 C11.5433962,5.28545455 11.4896226,3.88636364 11.4896226,3.61 C11.5075472,2.72909091 12.2783019,2.00363636 13.2103774,2.00363636 C13.5150943,2.00363636 13.8198113,2.09 14.0707547,2.22818182 C14.3396226,2.07272727 14.6443396,2.00363636 14.9490566,2.00363636 C15.8632075,2.00363636 16.5801887,2.71181818 16.5981132,3.61 C16.6160377,3.88636364 16.5443396,5.30272727 14.3216981,6.21818182 C14.25,6.25272727 14.1603774,6.27 14.0528302,6.27 Z M12.9235849,3.66181818 C12.9235849,3.76545455 13.0311321,4.31818182 14.0528302,4.81909091 C15.1462264,4.26636364 15.1820755,3.67909091 15.1820755,3.66181818 C15.1820755,3.64454545 15.1820755,3.62727273 15.1820755,3.61 C15.1820755,3.48909091 15.1103774,3.36818182 14.9669811,3.36818182 C14.859434,3.36818182 14.7518868,3.43727273 14.7160377,3.50636364 C14.590566,3.73090909 14.3396226,3.86909091 14.0886792,3.86909091 C13.8377358,3.86909091 13.5867925,3.73090909 13.4613208,3.50636364 C13.4254717,3.43727273 13.3537736,3.36818182 13.2462264,3.36818182 C13.1028302,3.36818182 12.959434,3.48909091 12.959434,3.61 C12.9235849,3.64454545 12.9415094,3.64454545 12.9235849,3.66181818 Z" id="Shape" fill-rule="nonzero"></path>
            <path d="M18.8924528,7.30636364 C18.7669811,7.09909091 18.5339623,6.97818182 18.2830189,6.97818182 L0.716981132,6.97818182 C0.322641509,6.97818182 0,7.28909091 0,7.66909091 C0,8.04909091 0.322641509,8.36 0.716981132,8.36 L2.5990566,8.36 L2.5990566,16.0981818 C2.5990566,16.4781818 2.92169811,16.7890909 3.31603774,16.7890909 L14.3933962,16.7890909 C14.7877358,16.7890909 15.1103774,16.4781818 15.1103774,16.0981818 C15.1103774,15.7181818 14.7877358,15.4072727 14.3933962,15.4072727 L4.03301887,15.4072727 L4.03301887,14.06 L15.4509434,14.06 C15.7198113,14.06 15.9707547,13.9045455 16.0962264,13.6627273 L18.9283019,7.96272727 C19.0358491,7.75545455 19.0179245,7.51363636 18.8924528,7.30636364 Z M15.0028302,12.6954545 L4.03301887,12.6954545 L4.03301887,8.37727273 L17.1537736,8.37727273 L15.0028302,12.6954545 Z" id="Shape" fill-rule="nonzero"></path>
            <ellipse id="Oval" cx="4.60660377" cy="18.1881818" rx="1" ry="1"></ellipse>
            <ellipse id="Oval" cx="12.7264151" cy="18.1881818" rx="1" ry="1"></ellipse>
        </g>
        <g id="clock_heart" transform="translate(270.000000, 41.000000)" fill="#9571EE">
            <path d="M18.8566038,5.01724138 C18.8386792,2.20689655 16.6160377,0 13.7839623,0 C12.1886792,0 10.6292453,0.689655172 9.6254717,1.81034483 C8.63962264,0.672413793 7.18773585,0 5.61037736,0 C2.67075472,0 0.197169811,2.29310345 0.179245283,5.01724138 C0.161320755,5.53448276 0.0896226415,11.0344828 9.23113208,14.8448276 C9.32075472,14.8793103 9.41037736,14.8965517 9.51792453,14.8965517 C9.6254717,14.8965517 9.71509434,14.8793103 9.80471698,14.8448276 C18.9462264,11.0344828 18.8745283,5.53448276 18.8566038,5.01724138 Z M9.51792453,13.4482759 C1.41603774,9.98275862 1.59528302,5.29310345 1.61320755,5.10344828 C1.61320755,5.0862069 1.61320755,5.06896552 1.61320755,5.05172414 C1.61320755,3.05172414 3.44150943,1.37931034 5.61037736,1.37931034 C7.02641509,1.37931034 8.31698113,2.13793103 8.98018868,3.34482759 C9.10566038,3.56896552 9.35660377,3.70689655 9.60754717,3.70689655 C9.87641509,3.70689655 10.1273585,3.56896552 10.2349057,3.34482759 C10.8981132,2.17241379 12.3141509,1.37931034 13.7839623,1.37931034 C15.845283,1.37931034 17.4226415,2.94827586 17.4226415,5.05172414 C17.4226415,5.06896552 17.4226415,5.0862069 17.4226415,5.10344828 C17.440566,5.29310345 17.6198113,9.98275862 9.51792453,13.4482759 Z" id="Shape" fill-rule="nonzero"></path>
            <path d="M12.7443396,6.18965517 L10.0198113,8.79310345 C9.87641509,8.93103448 9.69716981,9 9.51792453,9 C9.33867925,9 9.15943396,8.93103448 9.01603774,8.79310345 L6.88301887,6.74137931 C6.59622642,6.46551724 6.59622642,6.03448276 6.88301887,5.75862069 C7.16981132,5.48275862 7.61792453,5.48275862 7.90471698,5.75862069 L9.53584906,7.32758621 L11.740566,5.20689655 C12.0273585,4.93103448 12.4754717,4.93103448 12.7622642,5.20689655 C13.0311321,5.48275862 13.0311321,5.9137931 12.7443396,6.18965517 Z" id="Path"></path>
        </g>
        <g id="clover" transform="translate(144.000000, 449.000000)" fill="#7ED321" fill-rule="nonzero">
            <path d="M3.27272727,5.98314607 C1.56818182,5.98314607 0.784090909,5.14044944 0.647727273,4.95505618 C-0.0681818182,4.11235955 0.0681818182,2.79775281 0.920454545,2.07303371 C1.26136364,1.78651685 1.67045455,1.61797753 2.11363636,1.58426966 C2.21590909,1.16292135 2.45454545,0.758426966 2.8125,0.471910112 C3.15340909,0.168539326 3.61363636,0 4.07386364,0 C4.67045455,0 5.23295455,0.269662921 5.64204545,0.724719101 C5.86363636,0.960674157 7.03977273,2.47752809 5.64204545,5.30898876 C5.55681818,5.47752809 5.40340909,5.59550562 5.23295455,5.66292135 C4.53409091,5.88202247 3.86931818,5.98314607 3.27272727,5.98314607 Z M1.70454545,4.12921348 C1.75568182,4.19662921 2.19886364,4.63483146 3.25568182,4.63483146 C3.64772727,4.63483146 4.07386364,4.56741573 4.53409091,4.4494382 C5.38636364,2.51123596 4.65340909,1.63483146 4.63636364,1.63483146 C4.61931818,1.61797753 4.61931818,1.61797753 4.60227273,1.6011236 C4.34659091,1.31460674 3.9375,1.26404494 3.66477273,1.5 C3.46022727,1.66853933 3.34090909,1.97191011 3.40909091,2.20786517 C3.46022727,2.44382022 3.375,2.71348315 3.1875,2.86516854 C3,3.03370787 2.72727273,3.06741573 2.48863636,2.98314607 C2.40340909,2.9494382 2.31818182,2.93258427 2.23295455,2.93258427 C2.11363636,2.93258427 1.94318182,2.96629213 1.78977273,3.1011236 C1.48295455,3.35393258 1.43181818,3.8258427 1.67045455,4.09550562 C1.70454545,4.11235955 1.6875,4.11235955 1.70454545,4.12921348 Z" id="Shape"></path>
            <path d="M4.07386364,12.2191011 C3.61363636,12.2191011 3.15340909,12.0505618 2.79545455,11.747191 C2.45454545,11.4438202 2.21590909,11.0561798 2.09659091,10.6348315 C1.65340909,10.6011236 1.24431818,10.4325843 0.903409091,10.1460674 C0.0340909091,9.42134831 -0.0852272727,8.08988764 0.630681818,7.26404494 C0.784090909,7.07865169 1.55113636,6.23595506 3.27272727,6.23595506 C3.88636364,6.23595506 4.53409091,6.33707865 5.23295455,6.55617978 C5.42045455,6.60674157 5.55681818,6.74157303 5.64204545,6.91011236 C7.03977273,9.74157303 5.86363636,11.258427 5.64204545,11.494382 C5.25,11.9662921 4.67045455,12.2191011 4.07386364,12.2191011 Z M2.76136364,9.20224719 C2.91477273,9.20224719 3.08522727,9.25280899 3.20454545,9.37078652 C3.39204545,9.53932584 3.47727273,9.79213483 3.42613636,10.0280899 C3.375,10.2640449 3.47727273,10.5505618 3.68181818,10.7359551 C3.95454545,10.9719101 4.36363636,10.9044944 4.61931818,10.6348315 C4.63636364,10.6179775 4.63636364,10.6179775 4.65340909,10.6011236 C4.73863636,10.5168539 5.38636364,9.65730337 4.55113636,7.78651685 C4.09090909,7.66853933 3.66477273,7.6011236 3.27272727,7.6011236 C2.16477273,7.6011236 1.72159091,8.10674157 1.72159091,8.10674157 C1.70454545,8.12359551 1.70454545,8.14044944 1.6875,8.14044944 C1.44886364,8.41011236 1.5,8.88202247 1.80681818,9.13483146 C1.96022727,9.26966292 2.14772727,9.30337079 2.25,9.30337079 C2.33522727,9.30337079 2.42045455,9.28651685 2.50568182,9.25280899 C2.59090909,9.21910112 2.67613636,9.20224719 2.76136364,9.20224719 Z" id="Shape"></path>
            <path d="M9.52840909,5.98314607 C8.91477273,5.98314607 8.26704545,5.88202247 7.56818182,5.66292135 C7.38068182,5.61235955 7.24431818,5.47752809 7.15909091,5.30898876 C5.76136364,2.47752809 6.9375,0.960674157 7.15909091,0.724719101 C7.55113636,0.269662921 8.11363636,0 8.71022727,0 C9.17045455,0 9.63068182,0.168539326 9.98863636,0.471910112 C10.3295455,0.775280899 10.5681818,1.16292135 10.6875,1.58426966 C11.1306818,1.61797753 11.5397727,1.78651685 11.8806818,2.07303371 C12.2897727,2.42696629 12.5625,2.91573034 12.6136364,3.45505618 C12.6647727,4.01123596 12.5113636,4.5505618 12.1534091,4.95505618 C12.0170455,5.14044944 11.25,5.98314607 9.52840909,5.98314607 Z M8.25,4.46629213 C8.71022727,4.58426966 9.13636364,4.65168539 9.52840909,4.65168539 C10.6363636,4.65168539 11.0795455,4.14606742 11.0795455,4.14606742 C11.0965909,4.12921348 11.0965909,4.11235955 11.1136364,4.11235955 C11.2670455,3.92696629 11.2670455,3.7247191 11.2670455,3.60674157 C11.25,3.40449438 11.1477273,3.23595506 11.0113636,3.1011236 C10.8579545,2.96629213 10.6704545,2.93258427 10.5681818,2.93258427 C10.4829545,2.93258427 10.3977273,2.9494382 10.3125,2.98314607 C10.0568182,3.06741573 9.78409091,3.03370787 9.59659091,2.86516854 C9.40909091,2.69662921 9.32386364,2.44382022 9.375,2.20786517 C9.42613636,1.97191011 9.32386364,1.68539326 9.11931818,1.5 C8.84659091,1.26404494 8.4375,1.33146067 8.18181818,1.61797753 C8.16477273,1.63483146 8.16477273,1.63483146 8.14772727,1.65168539 C8.07954545,1.73595506 7.43181818,2.57865169 8.25,4.46629213 Z" id="Shape"></path>
            <path d="M12.1534091,9.89325843 C12.4090909,9.57303371 12.5795455,9.18539326 12.6306818,8.76404494 C12.6818182,8.20786517 12.5284091,7.66853933 12.1704545,7.26404494 C12.0170455,7.07865169 11.2329545,6.23595506 9.52840909,6.23595506 C8.91477273,6.23595506 8.26704545,6.33707865 7.56818182,6.55617978 C7.38068182,6.60674157 7.22727273,6.74157303 7.15909091,6.91011236 C5.76136364,9.75842697 6.9375,11.258427 7.15909091,11.494382 C7.56818182,11.9494382 8.13068182,12.2191011 8.72727273,12.2191011 C9.20454545,12.2191011 9.64772727,12.0505618 10.0227273,11.747191 C10.3295455,11.494382 10.5340909,11.1573034 10.6704545,10.8033708 C12.3238636,11.0898876 13.5170455,12.488764 13.5170455,14.1741573 C13.5170455,14.5449438 13.8238636,14.8483146 14.1988636,14.8483146 C14.5738636,14.8483146 14.8806818,14.5449438 14.8806818,14.1741573 C14.8636364,12.3033708 13.7727273,10.6685393 12.1534091,9.89325843 Z M10.5511364,9.28651685 C10.4659091,9.28651685 10.3806818,9.26966292 10.2954545,9.23595506 C10.0568182,9.13483146 9.78409091,9.18539326 9.59659091,9.35393258 C9.40909091,9.52247191 9.32386364,9.7752809 9.375,10.011236 C9.42613636,10.247191 9.32386364,10.5337079 9.11931818,10.7191011 C8.84659091,10.9550562 8.4375,10.9044944 8.18181818,10.6179775 C8.16477273,10.6011236 8.16477273,10.6011236 8.14772727,10.5842697 C8.0625,10.5 7.41477273,9.64044944 8.25,7.76966292 C8.71022727,7.65168539 9.13636364,7.58426966 9.52840909,7.58426966 C10.5852273,7.58426966 11.0284091,8.03932584 11.0795455,8.08988764 C11.0965909,8.10674157 11.0965909,8.10674157 11.1136364,8.12359551 C11.2670455,8.29213483 11.2670455,8.51123596 11.25,8.62921348 C11.2329545,8.83146067 11.1306818,9 10.9943182,9.13483146 C10.8409091,9.26966292 10.6704545,9.28651685 10.5511364,9.28651685 Z" id="Shape"></path>
        </g>
        <g id="cocktail" transform="translate(599.000000, 382.000000)" fill="#3EDA22">
            <path d="M12.8527473,7.0317757 C13.0208791,6.81869159 13.0582418,6.53457944 12.9274725,6.28598131 C12.7967033,6.03738318 12.5351648,5.8953271 12.2549451,5.8953271 L7.41648352,5.8953271 L4.93186813,3.53364486 C5.54835165,1.61588785 4.65164835,0.674766355 4.44615385,0.497196262 C4.10989011,0.177570093 3.66153846,0 3.19450549,0 C2.74615385,0 2.31648352,0.177570093 1.9989011,0.479439252 C1.77472527,0.692523364 1.60659341,0.976635514 1.53186813,1.26074766 C1.21428571,1.3317757 0.934065934,1.49158879 0.70989011,1.7046729 C0.0186813187,2.36168224 -2.22044605e-16,3.44485981 0.672527473,4.08411215 C0.821978022,4.22616822 1.41978022,4.7411215 2.55934066,4.7411215 C2.97032967,4.7411215 3.41868132,4.67009346 3.86703297,4.54579439 L5.28681319,5.8953271 L3.1010989,5.8953271 C2.82087912,5.8953271 2.55934066,6.05514019 2.42857143,6.28598131 C2.2978022,6.51682243 2.33516484,6.81869159 2.5032967,7.0317757 L6.93076923,12.6074766 L6.93076923,17.4906542 L4.95054945,17.4906542 C4.53956044,17.4906542 4.2032967,17.8102804 4.2032967,18.2009346 C4.2032967,18.5915888 4.53956044,18.911215 4.95054945,18.911215 L10.4241758,18.911215 C10.8351648,18.911215 11.1714286,18.5915888 11.1714286,18.2009346 C11.1714286,17.8102804 10.8351648,17.4906542 10.4241758,17.4906542 L8.42527473,17.4906542 L8.42527473,12.6074766 L12.8527473,7.0317757 Z M3.49340659,3.16074766 C3.15714286,3.26728972 2.83956044,3.32056075 2.57802198,3.32056075 C2.07362637,3.32056075 1.83076923,3.14299065 1.77472527,3.10747664 C1.75604396,3.08971963 1.77472527,3.10747664 1.73736264,3.08971963 C1.64395604,3.00093458 1.66263736,2.82336449 1.77472527,2.71682243 C1.84945055,2.64579439 1.92417582,2.64579439 1.96153846,2.64579439 C1.98021978,2.64579439 2.01758242,2.64579439 2.03626374,2.6635514 C2.2978022,2.73457944 2.5967033,2.68130841 2.78351648,2.48598131 C2.97032967,2.30841121 3.04505495,2.02429907 2.97032967,1.77570093 C2.95164835,1.7046729 2.97032967,1.58037383 3.06373626,1.49158879 C3.15714286,1.40280374 3.30659341,1.42056075 3.4,1.5271028 C3.41868132,1.54485981 3.41868132,1.54485981 3.43736264,1.54485981 C3.49340659,1.61588785 3.84835165,2.07757009 3.49340659,3.16074766 Z M7.67802198,11.1869159 L4.5956044,7.31588785 L10.7604396,7.31588785 L7.67802198,11.1869159 Z" id="Shape" fill-rule="nonzero"></path>
            <path d="M11.9373626,11.311215 C11.7318681,11.311215 11.5076923,11.2934579 11.3021978,11.2757009 C10.8912088,11.2224299 10.610989,10.8672897 10.6483516,10.4766355 C10.7043956,10.0859813 11.078022,9.81962617 11.489011,9.85514019 C11.6384615,9.8728972 11.7879121,9.8728972 11.9373626,9.8728972 C13.8802198,9.8728972 15.4494505,8.38130841 15.4494505,6.53457944 C15.4494505,4.68785047 13.8802198,3.19626168 11.9373626,3.19626168 C10.5736264,3.19626168 9.32197802,3.95981308 8.74285714,5.1317757 C8.57472527,5.48691589 8.12637363,5.64672897 7.75274725,5.48691589 C7.37912088,5.3271028 7.21098901,4.90093458 7.37912088,4.54579439 C8.2010989,2.8588785 9.99450549,1.77570093 11.9373626,1.77570093 C14.7021978,1.77570093 16.943956,3.90654206 16.943956,6.53457944 C16.943956,9.16261682 14.7021978,11.311215 11.9373626,11.311215 Z" id="Path"></path>
        </g>
        <g id="coffee_love" transform="translate(503.000000, 72.000000)" fill="#18E586">
            <path d="M12.6666667,19 L3.51851852,19 C3.16666667,19 2.86759259,18.7311321 2.81481481,18.390566 L1.58333333,9.85849057 C1.54814815,9.64339623 1.61851852,9.44622642 1.74166667,9.28490566 C1.88240741,9.12358491 2.07592593,9.03396226 2.26944444,9.03396226 L13.8805556,9.03396226 C14.0916667,9.03396226 14.2851852,9.12358491 14.4083333,9.28490566 C14.5490741,9.44622642 14.6018519,9.64339623 14.5666667,9.85849057 L13.3351852,18.390566 C13.3,18.7311321 13.0009259,19 12.6666667,19 Z M4.11666667,17.5660377 L12.0509259,17.5660377 L13.0712963,10.4679245 L3.0962963,10.4679245 L4.11666667,17.5660377 Z" id="Shape" fill-rule="nonzero"></path>
            <path d="M17.2583333,16.8311321 L15.0416667,16.8311321 C14.6546296,16.8311321 14.337963,16.5084906 14.337963,16.1141509 C14.337963,15.7198113 14.6546296,15.3971698 15.0416667,15.3971698 L16.6777778,15.3971698 L17.2935185,11.9377358 L15.7453704,11.9377358 C15.3583333,11.9377358 15.0416667,11.6150943 15.0416667,11.2207547 C15.0416667,10.8264151 15.3583333,10.5037736 15.7453704,10.5037736 L18.137963,10.5037736 C18.3490741,10.5037736 18.5425926,10.5933962 18.6833333,10.754717 C18.8240741,10.9160377 18.8768519,11.1311321 18.8416667,11.3462264 L17.962037,16.2396226 C17.8916667,16.5801887 17.6101852,16.8311321 17.2583333,16.8311321 Z" id="Path"></path>
            <path d="M3.39537037,5.91509434 C3.30740741,5.91509434 3.20185185,5.89716981 3.11388889,5.86132075 C1.81203704,5.26981132 0.87962963,4.4990566 0.369444444,3.5490566 C0,2.86792453 0,2.31226415 0,2.1509434 C0.0175925926,0.985849057 1.00277778,0 2.18148148,0 C2.63888889,0 3.0787037,0.161320755 3.44814815,0.430188679 C3.81759259,0.161320755 4.275,0 4.73240741,0 C5.89351852,0 6.79074074,0.95 6.79074074,2.1509434 C6.79074074,2.49150943 6.70277778,4.51698113 3.65925926,5.84339623 C3.58888889,5.89716981 3.50092593,5.91509434 3.39537037,5.91509434 Z M1.40740741,2.20471698 C1.40740741,2.33018868 1.47777778,3.45943396 3.39537037,4.40943396 C5.33055556,3.45943396 5.40092593,2.33018868 5.40092593,2.20471698 C5.40092593,2.18679245 5.40092593,2.18679245 5.40092593,2.16886792 C5.40092593,1.75660377 5.11944444,1.43396226 4.75,1.43396226 C4.46851852,1.43396226 4.18703704,1.59528302 4.06388889,1.82830189 C3.94074074,2.06132075 3.69444444,2.20471698 3.44814815,2.20471698 C3.20185185,2.20471698 2.95555556,2.06132075 2.83240741,1.82830189 C2.69166667,1.57735849 2.44537037,1.43396226 2.18148148,1.43396226 C1.77685185,1.43396226 1.40740741,1.7745283 1.40740741,2.16886792 C1.40740741,2.18679245 1.40740741,2.18679245 1.40740741,2.20471698 Z" id="Shape" fill-rule="nonzero"></path>
            <path d="M9.14814815,8.33490566 C9.06018519,8.33490566 8.95462963,8.31698113 8.86666667,8.28113208 C6.68518519,7.31320755 6.61481481,5.84339623 6.63240741,5.55660377 C6.65,4.64245283 7.40648148,3.88962264 8.3212963,3.88962264 C8.62037037,3.88962264 8.91944444,3.97924528 9.16574074,4.12264151 C9.42962963,3.96132075 9.7287037,3.88962264 10.0277778,3.88962264 C10.925,3.88962264 11.6287037,4.6245283 11.6462963,5.55660377 C11.6638889,5.84339623 11.5935185,7.31320755 9.41203704,8.26320755 C9.32407407,8.31698113 9.23611111,8.33490566 9.14814815,8.33490566 Z M8.03981481,5.61037736 C8.03981481,5.71792453 8.14537037,6.29150943 9.14814815,6.81132075 C10.2212963,6.23773585 10.2564815,5.62830189 10.2564815,5.61037736 C10.2564815,5.59245283 10.2564815,5.5745283 10.2564815,5.55660377 C10.2564815,5.43113208 10.1861111,5.30566038 10.0453704,5.30566038 C9.93981481,5.30566038 9.83425926,5.37735849 9.79907407,5.4490566 C9.67592593,5.68207547 9.42962963,5.8254717 9.18333333,5.8254717 C8.93703704,5.8254717 8.69074074,5.68207547 8.56759259,5.4490566 C8.53240741,5.37735849 8.46203704,5.30566038 8.35648148,5.30566038 C8.21574074,5.30566038 8.075,5.43113208 8.075,5.55660377 C8.03981481,5.61037736 8.03981481,5.59245283 8.03981481,5.61037736 Z" id="Shape" fill-rule="nonzero"></path>
        </g>
        <g id="double_cocktail" transform="translate(113.000000, 177.000000)" fill="#02B1D0" fill-rule="nonzero">
            <path d="M9.58796296,5.89285714 C9.5,5.89285714 9.39444444,5.875 9.30648148,5.83928571 C7.98703704,5.26785714 7.05462963,4.48214286 6.56203704,3.55357143 C6.19259259,2.85714286 6.175,2.30357143 6.19259259,2.14285714 C6.21018519,0.982142857 7.19537037,3.17206578e-16 8.37407407,3.17206578e-16 C8.83148148,3.17206578e-16 9.2712963,0.160714286 9.64074074,0.428571429 C9.99259259,0.160714286 10.45,0 10.925,0 C12.0861111,0 12.9833333,0.946428571 12.9833333,2.14285714 C12.9833333,2.48214286 12.8777778,4.5 9.85185185,5.82142857 C9.78148148,5.875 9.67592593,5.89285714 9.58796296,5.89285714 Z M7.6,2.19642857 C7.6,2.32142857 7.67037037,3.44642857 9.58796296,4.39285714 C11.5759259,3.41071429 11.5935185,2.21428571 11.5935185,2.19642857 C11.5935185,2.17857143 11.5935185,2.16071429 11.5935185,2.14285714 C11.5935185,1.73214286 11.312037,1.41071429 10.9425926,1.41071429 C10.6611111,1.41071429 10.3796296,1.57142857 10.2564815,1.80357143 C10.1333333,2.03571429 9.88703704,2.17857143 9.64074074,2.17857143 C9.37685185,2.17857143 9.14814815,2.03571429 9.025,1.80357143 C8.86666667,1.57142857 8.62037037,1.42857143 8.35648148,1.42857143 C7.95185185,1.42857143 7.58240741,1.76785714 7.58240741,2.16071429 C7.6,2.17857143 7.6,2.17857143 7.6,2.19642857 Z" id="Shape"></path>
            <path d="M18.6833333,7.91071429 C18.8416667,7.69642857 18.8768519,7.41071429 18.7537037,7.16071429 C18.6305556,6.91071429 18.3842593,6.76785714 18.1203704,6.76785714 L0.87962963,6.76785714 C0.615740741,6.76785714 0.369444444,6.92857143 0.246296296,7.16071429 C0.123148148,7.39285714 0.158333333,7.69642857 0.316666667,7.91071429 L4.48611111,13.5178571 L4.48611111,18.4285714 L2.6212963,18.4285714 C2.23425926,18.4285714 1.91759259,18.75 1.91759259,19.1428571 C1.91759259,19.5357143 2.23425926,19.8571429 2.6212963,19.8571429 L7.77592593,19.8571429 C8.16296296,19.8571429 8.47962963,19.5357143 8.47962963,19.1428571 C8.47962963,18.75 8.16296296,18.4285714 7.77592593,18.4285714 L5.89351852,18.4285714 L5.89351852,13.5178571 L9.5,8.66071429 L13.1064815,13.5178571 L13.1064815,18.4285714 L11.2416667,18.4285714 C10.8546296,18.4285714 10.537963,18.75 10.537963,19.1428571 C10.537963,19.5357143 10.8546296,19.8571429 11.2416667,19.8571429 L16.3787037,19.8571429 C16.7657407,19.8571429 17.0824074,19.5357143 17.0824074,19.1428571 C17.0824074,18.75 16.7657407,18.4285714 16.3787037,18.4285714 L14.5138889,18.4285714 L14.5138889,13.5178571 L18.6833333,7.91071429 Z M5.18981481,12.0892857 L2.28703704,8.19642857 L8.09259259,8.19642857 L5.18981481,12.0892857 Z M10.9074074,8.19642857 L16.712963,8.19642857 L13.8101852,12.0892857 L10.9074074,8.19642857 Z" id="Shape"></path>
        </g>
        <g id="elixir" transform="translate(183.000000, 320.000000)" fill="#3580F7" fill-rule="nonzero">
            <path d="M3.40588235,5.80555556 C3.31764706,5.80555556 3.21176471,5.78796296 3.12352941,5.75277778 C1.81764706,5.17222222 0.882352941,4.41574074 0.370588235,3.48333333 C0,2.81481481 0,2.26944444 0,2.11111111 C0.0176470588,0.967592593 1.00588235,0 2.18823529,0 C2.64705882,0 3.08823529,0.158333333 3.45882353,0.422222222 C3.82941176,0.158333333 4.28823529,0 4.74705882,0 C5.91176471,0 6.81176471,0.932407407 6.81176471,2.11111111 C6.81176471,2.44537037 6.72352941,4.43333333 3.67058824,5.73518519 C3.6,5.78796296 3.51176471,5.80555556 3.40588235,5.80555556 Z M1.41176471,2.16388889 C1.41176471,2.28703704 1.48235294,3.39537037 3.40588235,4.32777778 C5.34705882,3.39537037 5.41764706,2.28703704 5.41764706,2.16388889 C5.41764706,2.1462963 5.41764706,2.1462963 5.41764706,2.1287037 C5.41764706,1.72407407 5.13529412,1.40740741 4.76470588,1.40740741 C4.48235294,1.40740741 4.2,1.56574074 4.07647059,1.79444444 C3.95294118,2.02314815 3.70588235,2.16388889 3.45882353,2.16388889 C3.19411765,2.16388889 2.96470588,2.02314815 2.84117647,1.79444444 C2.7,1.54814815 2.45294118,1.40740741 2.18823529,1.40740741 C1.78235294,1.40740741 1.41176471,1.74166667 1.41176471,2.1287037 C1.41176471,2.1462963 1.41176471,2.1462963 1.41176471,2.16388889 Z" id="Shape"></path>
            <path d="M4.05882353,11.1185185 C3.97058824,11.1185185 3.86470588,11.1009259 3.77647059,11.0657407 C1.58823529,10.1157407 1.51764706,8.67314815 1.53529412,8.39166667 C1.55294118,7.49444444 2.31176471,6.75555556 3.22941176,6.75555556 C3.52941176,6.75555556 3.82941176,6.84351852 4.07647059,6.98425926 C4.34117647,6.82592593 4.64117647,6.75555556 4.94117647,6.75555556 C5.84117647,6.75555556 6.54705882,7.47685185 6.56470588,8.39166667 C6.58235294,8.67314815 6.51176471,10.1157407 4.32352941,11.0481481 C4.25294118,11.1009259 4.14705882,11.1185185 4.05882353,11.1185185 Z M2.94705882,8.44444444 C2.94705882,8.55 3.05294118,9.11296296 4.05882353,9.62314815 C5.13529412,9.06018519 5.17058824,8.46203704 5.17058824,8.44444444 C5.17058824,8.42685185 5.17058824,8.40925926 5.17058824,8.39166667 C5.17058824,8.26851852 5.1,8.14537037 4.95882353,8.14537037 C4.85294118,8.14537037 4.74705882,8.21574074 4.71176471,8.28611111 C4.58823529,8.51481481 4.34117647,8.65555556 4.09411765,8.65555556 C3.84705882,8.65555556 3.6,8.51481481 3.47647059,8.28611111 C3.44117647,8.21574074 3.37058824,8.14537037 3.26470588,8.14537037 C3.12352941,8.14537037 2.98235294,8.26851852 2.98235294,8.39166667 C2.94705882,8.44444444 2.94705882,8.42685185 2.94705882,8.44444444 Z" id="Shape"></path>
            <path d="M16.9411765,13.0009259 L11.5588235,7.63518519 L12.0529412,7.14259259 C12.3352941,6.86111111 12.3352941,6.4212963 12.0529412,6.13981481 C11.7705882,5.85833333 11.3294118,5.85833333 11.0470588,6.13981481 L10.0588235,7.125 L6.19411765,10.9953704 L5.20588235,11.9805556 C4.92352941,12.262037 4.92352941,12.7018519 5.20588235,12.9833333 C5.34705882,13.1240741 5.52352941,13.1944444 5.7,13.1944444 C5.87647059,13.1944444 6.05294118,13.1240741 6.19411765,12.9833333 L6.70588235,12.4907407 L12.0882353,17.8564815 C12.7411765,18.5074074 13.6058824,18.8592593 14.5235294,18.8592593 C15.4411765,18.8592593 16.3058824,18.5074074 16.9588235,17.8564815 C17.6117647,17.2055556 17.9647059,16.3435185 17.9647059,15.4287037 C17.9647059,14.5138889 17.5941176,13.6518519 16.9411765,13.0009259 Z M15.9529412,16.8712963 C15.5647059,17.2583333 15.0705882,17.4694444 14.5235294,17.4694444 C13.9764706,17.4694444 13.4647059,17.2583333 13.0941176,16.8712963 L9.40588235,13.212037 L12.1235294,13.212037 C12.5117647,13.212037 12.8294118,12.8953704 12.8294118,12.5083333 C12.8294118,12.1212963 12.5117647,11.8046296 12.1235294,11.8046296 L7.99411765,11.8046296 L7.69411765,11.5055556 L10.5705882,8.63796296 L15.9529412,14.0037037 C16.3411765,14.3907407 16.5529412,14.8833333 16.5529412,15.4287037 C16.5529412,15.9740741 16.3411765,16.4842593 15.9529412,16.8712963 Z" id="Shape"></path>
        </g>
        <g id="fly_heart" transform="translate(547.000000, 325.000000)" fill="#C5C51E">
            <path d="M9.41203704,14.9302326 C9.32407407,14.9302326 9.21851852,14.9127907 9.13055556,14.877907 C2.83240741,12.1744186 2.83240741,8.21511628 2.85,7.77906977 C2.85,5.75581395 4.64444444,4.04651163 6.75555556,4.04651163 C7.81111111,4.04651163 8.7962963,4.48255814 9.5,5.21511628 C10.2212963,4.5 11.2592593,4.04651163 12.3324074,4.04651163 C14.3731481,4.04651163 15.9916667,5.68604651 15.9916667,7.77906977 C16.0092593,8.19767442 16.0092593,12.1569767 9.71111111,14.8604651 C9.60555556,14.9127907 9.5,14.9302326 9.41203704,14.9302326 Z M6.75555556,5.44186047 C5.40092593,5.44186047 4.25740741,6.52325581 4.25740741,7.79651163 C4.25740741,7.81395349 4.25740741,7.83139535 4.25740741,7.84883721 C4.25740741,7.97093023 4.15185185,11.0930233 9.41203704,13.4651163 C14.6722222,11.0930233 14.5842593,7.97093023 14.5666667,7.84883721 C14.5666667,7.83139535 14.5666667,7.81395349 14.5666667,7.81395349 C14.5666667,6.47093023 13.5990741,5.45930233 12.3148148,5.45930233 C11.4,5.45930233 10.4851852,5.98255814 10.0981481,6.71511628 C9.975,6.94186047 9.7287037,7.08139535 9.48240741,7.08139535 C9.21851852,7.08139535 8.98981481,6.94186047 8.86666667,6.71511628 C8.44444444,5.93023256 7.63518519,5.44186047 6.75555556,5.44186047 Z" id="Shape" fill-rule="nonzero"></path>
            <path d="M3.69444444,4.53488372 C3.51851852,4.53488372 3.34259259,4.46511628 3.20185185,4.3255814 L0.211111111,1.36046512 C-0.0703703704,1.08139535 -0.0703703704,0.645348837 0.211111111,0.36627907 C0.492592593,0.0872093023 0.932407407,0.0872093023 1.21388889,0.36627907 L4.20462963,3.33139535 C4.48611111,3.61046512 4.48611111,4.04651163 4.20462963,4.3255814 C4.0462963,4.46511628 3.87037037,4.53488372 3.69444444,4.53488372 Z" id="Path"></path>
            <path d="M2.05833333,6.34883721 C1.88240741,6.34883721 1.70648148,6.27906977 1.56574074,6.13953488 L0.211111111,4.79651163 C-0.0703703704,4.51744186 -0.0703703704,4.08139535 0.211111111,3.80232558 C0.492592593,3.52325581 0.932407407,3.52325581 1.21388889,3.80232558 L2.56851852,5.14534884 C2.85,5.4244186 2.85,5.86046512 2.56851852,6.13953488 C2.42777778,6.29651163 2.23425926,6.34883721 2.05833333,6.34883721 Z" id="Path"></path>
            <path d="M15.1296296,4.53488372 C14.9537037,4.53488372 14.7777778,4.46511628 14.637037,4.3255814 C14.3555556,4.04651163 14.3555556,3.61046512 14.637037,3.33139535 L17.6277778,0.36627907 C17.9092593,0.0872093023 18.3490741,0.0872093023 18.6305556,0.36627907 C18.912037,0.645348837 18.912037,1.08139535 18.6305556,1.36046512 L15.6398148,4.3255814 C15.4814815,4.46511628 15.3055556,4.53488372 15.1296296,4.53488372 Z" id="Path"></path>
            <path d="M16.7657407,6.34883721 C16.5898148,6.34883721 16.4138889,6.27906977 16.2731481,6.13953488 C15.9916667,5.86046512 15.9916667,5.4244186 16.2731481,5.14534884 L17.6277778,3.80232558 C17.9092593,3.52325581 18.3490741,3.52325581 18.6305556,3.80232558 C18.912037,4.08139535 18.912037,4.51744186 18.6305556,4.79651163 L17.2759259,6.13953488 C17.1175926,6.29651163 16.9416667,6.34883721 16.7657407,6.34883721 Z" id="Path"></path>
        </g>
        <g id="heart_" transform="translate(19.000000, 409.000000)" fill="#E2B815" fill-rule="nonzero">
            <path d="M9.51792453,14.8965517 C9.42830189,14.8965517 9.32075472,14.8793103 9.23113208,14.8448276 C0.0896226415,11.0344828 0.161320755,5.53448276 0.179245283,5.01724138 C0.197169811,2.29310345 2.67075472,0 5.61037736,0 C7.18773585,0 8.63962264,0.672413793 9.6254717,1.81034483 C10.6292453,0.689655172 12.1886792,0 13.7839623,0 C16.6160377,0 18.8386792,2.20689655 18.8566038,5.01724138 C18.8745283,5.51724138 18.9462264,11.0344828 9.80471698,14.8275862 C9.71509434,14.8793103 9.60754717,14.8965517 9.51792453,14.8965517 Z M5.61037736,1.37931034 C3.44150943,1.37931034 1.61320755,3.05172414 1.61320755,5.05172414 C1.61320755,5.06896552 1.61320755,5.0862069 1.61320755,5.10344828 C1.59528302,5.29310345 1.41603774,9.98275862 9.51792453,13.4482759 C17.6198113,9.96551724 17.440566,5.27586207 17.4226415,5.0862069 C17.4226415,5.06896552 17.4226415,5.05172414 17.4226415,5.03448276 C17.4226415,2.94827586 15.8632075,1.37931034 13.7839623,1.37931034 C12.3141509,1.37931034 10.8801887,2.17241379 10.2528302,3.34482759 C10.1273585,3.56896552 9.87641509,3.70689655 9.6254717,3.70689655 C9.3745283,3.70689655 9.12358491,3.56896552 8.99811321,3.34482759 C8.31698113,2.13793103 7.02641509,1.37931034 5.61037736,1.37931034 Z" id="Shape"></path>
        </g>
        <g id="heart_beat" transform="translate(325.000000, 211.000000)" fill="#F73BA2" fill-rule="nonzero">
            <path d="M18.8566038,5.03448276 C18.8386792,2.20689655 16.6160377,0 13.7839623,0 C12.1886792,0 10.6292453,0.689655172 9.6254717,1.81034483 C8.63962264,0.672413793 7.18773585,0 5.61037736,0 C2.67075472,0 0.197169811,2.29310345 0.179245283,5.01724138 C0.161320755,5.53448276 0.0896226415,11.0344828 9.23113208,14.8448276 C9.32075472,14.8793103 9.41037736,14.8965517 9.51792453,14.8965517 C9.60754717,14.8965517 9.71509434,14.8793103 9.80471698,14.8448276 C14.6622642,12.8275862 16.9207547,10.3103448 17.9783019,8.34482759 C17.9962264,8.31034483 18.0141509,8.25862069 18.0320755,8.22413793 C18.8924528,6.53448276 18.8745283,5.25862069 18.8566038,5.03448276 Z M16.9028302,7.27586207 L13.8735849,7.27586207 L12.690566,5.48275862 C12.5650943,5.27586207 12.3320755,5.15517241 12.0811321,5.15517241 C11.8301887,5.15517241 11.6150943,5.27586207 11.4716981,5.48275862 L10.2886792,7.27586207 L5.84339623,7.27586207 C5.4490566,7.27586207 5.12641509,7.5862069 5.12641509,7.96551724 C5.12641509,8.34482759 5.4490566,8.65517241 5.84339623,8.65517241 L10.6830189,8.65517241 C10.9339623,8.65517241 11.1490566,8.53448276 11.2924528,8.32758621 L12.0811321,7.12068966 L12.8698113,8.32758621 C12.995283,8.53448276 13.2283019,8.65517241 13.4792453,8.65517241 L16.1141509,8.65517241 C15.0386792,10.1724138 13.0849057,11.9310345 9.51792453,13.4482759 C1.41603774,9.98275862 1.59528302,5.29310345 1.61320755,5.0862069 C1.61320755,5.06896552 1.61320755,5.05172414 1.61320755,5.03448276 C1.61320755,3.05172414 3.44150943,1.37931034 5.61037736,1.37931034 C7.02641509,1.37931034 8.31698113,2.13793103 8.98018868,3.34482759 C9.10566038,3.56896552 9.35660377,3.70689655 9.60754717,3.70689655 C9.87641509,3.70689655 10.1273585,3.56896552 10.2349057,3.34482759 C10.8981132,2.17241379 12.3141509,1.37931034 13.7839623,1.37931034 C15.845283,1.37931034 17.4226415,2.94827586 17.4226415,5.05172414 C17.4226415,5.06896552 17.4226415,5.0862069 17.4226415,5.10344828 C17.4226415,5.17241379 17.4584906,6.03448276 16.9028302,7.27586207 Z" id="Shape"></path>
        </g>
        <g id="home" transform="translate(207.000000, 152.000000)" fill="#E54EEB" fill-rule="nonzero">
            <path d="M9.5,10.4858491 C9.41121495,10.4858491 9.3046729,10.4679245 9.21588785,10.4320755 C7.01401869,9.46415094 6.96074766,8.01226415 6.96074766,7.7254717 C6.97850467,6.81132075 7.74205607,6.05849057 8.66542056,6.05849057 C8.96728972,6.05849057 9.26915888,6.14811321 9.51775701,6.29150943 C9.78411215,6.13018868 10.0859813,6.05849057 10.3878505,6.05849057 C11.2934579,6.05849057 12.0037383,6.79339623 12.0214953,7.7254717 C12.0392523,8.01226415 11.9682243,9.48207547 9.76635514,10.4320755 C9.6953271,10.4679245 9.58878505,10.4858491 9.5,10.4858491 Z M8.38130841,7.77924528 C8.38130841,7.88679245 8.48785047,8.46037736 9.5,8.98018868 C10.5831776,8.40660377 10.6186916,7.79716981 10.6186916,7.77924528 C10.6186916,7.76132075 10.6186916,7.74339623 10.6186916,7.7254717 C10.6186916,7.6 10.5476636,7.4745283 10.4056075,7.4745283 C10.2990654,7.4745283 10.1925234,7.54622642 10.1570093,7.61792453 C10.0327103,7.8509434 9.78411215,7.99433962 9.53551402,7.99433962 C9.28691589,7.99433962 9.03831776,7.8509434 8.91401869,7.61792453 C8.87850467,7.54622642 8.80747664,7.4745283 8.70093458,7.4745283 C8.5588785,7.4745283 8.41682243,7.6 8.41682243,7.7254717 C8.38130841,7.76132075 8.38130841,7.76132075 8.38130841,7.77924528 Z" id="Shape"></path>
            <path d="M18.7869159,9.06981132 L10.0859813,0.21509434 C9.81962617,-0.0716981132 9.35794393,-0.0716981132 9.09158879,0.21509434 L0.213084112,8.99811321 C0.0710280374,9.12358491 0,9.30283019 0,9.5 L0,18.2830189 C0,18.6773585 0.319626168,19 0.710280374,19 L18.2897196,19 C18.6803738,19 19,18.6773585 19,18.2830189 L19,9.57169811 C19,9.3745283 18.928972,9.19528302 18.7869159,9.06981132 Z M8.75420561,17.5660377 L8.75420561,12.8518868 L10.4233645,12.8518868 L10.4233645,17.5660377 L8.75420561,17.5660377 Z M17.5794393,17.5660377 L11.8439252,17.5660377 L11.8439252,12.1349057 C11.8439252,11.740566 11.5242991,11.4179245 11.1336449,11.4179245 L8.04392523,11.4179245 C7.65327103,11.4179245 7.33364486,11.740566 7.33364486,12.1349057 L7.33364486,17.5660377 L1.42056075,17.5660377 L1.42056075,9.80471698 L9.58878505,1.73867925 L17.5794393,9.85849057 L17.5794393,17.5660377 Z" id="Shape"></path>
        </g>
        <g id="letter" transform="translate(493.000000, 265.000000)" fill="#BB53FF" fill-rule="nonzero">
            <path d="M18.4722222,5.08235294 C18.2435185,4.95882353 17.962037,4.97647059 17.7509259,5.11764706 L9.42962963,10.5882353 L1.10833333,5.11764706 C0.897222222,4.97647059 0.615740741,4.95882353 0.387037037,5.08235294 C0.158333333,5.20588235 0.0175925926,5.43529412 0.0175925926,5.7 L0.0175925926,17.1705882 C0.0175925926,17.3470588 0.087962963,17.5235294 0.228703704,17.6647059 C0.246296296,17.6823529 0.263888889,17.7 0.281481481,17.7176471 C0.334259259,17.7705882 0.387037037,17.8058824 0.457407407,17.8235294 C0.475,17.8235294 0.492592593,17.8411765 0.510185185,17.8411765 C0.510185185,17.8411765 0.527777778,17.8411765 0.527777778,17.8411765 C0.54537037,17.8411765 0.580555556,17.8588235 0.598148148,17.8588235 C0.650925926,17.8764706 0.686111111,17.8764706 0.738888889,17.8764706 L18.1555556,17.8764706 C18.2259259,17.8764706 18.3138889,17.8588235 18.3842593,17.8411765 C18.4018519,17.8411765 18.4194444,17.8235294 18.437037,17.8235294 C18.525,17.7882353 18.5953704,17.7352941 18.6657407,17.6647059 C18.7361111,17.5941176 18.7888889,17.5235294 18.8064815,17.4352941 C18.8240741,17.4176471 18.8240741,17.4 18.8240741,17.3823529 C18.8416667,17.3117647 18.8592593,17.2411765 18.8592593,17.1705882 L18.8592593,5.7 C18.8416667,5.45294118 18.7009259,5.20588235 18.4722222,5.08235294 Z M12.2972222,12.3882353 L16.4314815,16.4823529 L2.42777778,16.4823529 L6.47407407,12.4941176 C6.75555556,12.2294118 6.75555556,11.7705882 6.47407407,11.4882353 C6.21018519,11.2058824 5.75277778,11.2058824 5.4712963,11.4705882 L1.425,15.4941176 L1.425,7.02352941 L9.04259259,12.0352941 C9.2712963,12.1941176 9.58796296,12.1941176 9.81666667,12.0352941 L17.4342593,7.02352941 L17.4342593,15.4941176 L13.2824074,11.3823529 C13.0009259,11.1176471 12.5611111,11.1176471 12.2796296,11.3823529 C12.0157407,11.6647059 12.0157407,12.1058824 12.2972222,12.3882353 Z" id="Shape"></path>
            <path d="M9.34166667,8.78823529 C9.2537037,8.78823529 9.14814815,8.77058824 9.06018519,8.73529412 C4.15185185,6.6 4.09907407,3.45882353 4.11666667,3.07058824 C4.13425926,1.41176471 5.57685185,0 7.28333333,0 C8.075,0 8.83148148,0.3 9.39444444,0.847058824 C9.975,0.317647059 10.7666667,0 11.5583333,0 C13.2296296,0 14.5314815,1.34117647 14.5314815,3.07058824 C14.5490741,3.45882353 14.4962963,6.6 9.58796296,8.73529412 C9.53518519,8.77058824 9.42962963,8.78823529 9.34166667,8.78823529 Z M7.28333333,1.41176471 C6.35092593,1.41176471 5.52407407,2.18823529 5.52407407,3.08823529 C5.52407407,3.10588235 5.52407407,3.12352941 5.52407407,3.14117647 C5.52407407,3.22941176 5.4712963,5.54117647 9.34166667,7.32352941 C13.212037,5.54117647 13.1592593,3.22941176 13.1592593,3.14117647 C13.1592593,3.12352941 13.1592593,3.12352941 13.1592593,3.10588235 C13.1592593,2.15294118 12.4907407,1.42941176 11.5935185,1.42941176 C10.9425926,1.42941176 10.3092593,1.8 10.0277778,2.32941176 C9.90462963,2.55882353 9.65833333,2.7 9.41203704,2.7 C9.16574074,2.7 8.91944444,2.55882353 8.7962963,2.32941176 C8.47962963,1.74705882 7.91666667,1.41176471 7.28333333,1.41176471 Z" id="Shape"></path>
        </g>
        <g id="love_bag" transform="translate(441.000000, 146.000000)" fill="#BD10E0" fill-rule="nonzero">
            <path d="M9.71111111,14.6909091 C9.62314815,14.6909091 9.51759259,14.6727273 9.42962963,14.6363636 C5.9462963,13.0727273 5.85833333,10.7272727 5.85833333,10.3636364 C5.85833333,9.05454545 6.96666667,7.94545455 8.28611111,7.94545455 C8.83148148,7.94545455 9.34166667,8.14545455 9.76388889,8.47272727 C10.1861111,8.12727273 10.7138889,7.94545455 11.2768519,7.94545455 C12.5611111,7.94545455 13.5638889,9.01818182 13.5638889,10.3636364 C13.5638889,10.7272727 13.4935185,13.0727273 9.99259259,14.6363636 C9.90462963,14.6727273 9.81666667,14.6909091 9.71111111,14.6909091 Z M8.28611111,9.4 C7.74074074,9.4 7.26574074,9.85454545 7.26574074,10.3818182 C7.26574074,10.4 7.26574074,10.4181818 7.26574074,10.4363636 C7.26574074,10.4909091 7.24814815,11.9818182 9.71111111,13.1818182 C12.1740741,11.9818182 12.1564815,10.4909091 12.1564815,10.4181818 C12.1564815,10.4 12.1564815,10.4 12.1564815,10.3818182 C12.1564815,9.81818182 11.7694444,9.4 11.2768519,9.4 C10.9074074,9.4 10.537963,9.61818182 10.3796296,9.92727273 C10.2564815,10.1636364 10.0101852,10.3090909 9.76388889,10.3090909 C9.51759259,10.3090909 9.2712963,10.1636364 9.14814815,9.92727273 C8.97222222,9.6 8.63796296,9.4 8.28611111,9.4 Z" id="Shape"></path>
            <path d="M18.9824074,17.0909091 L17.9268519,5.34545455 C17.8916667,4.96363636 17.5925926,4.69090909 17.2231481,4.69090909 L13.2824074,4.69090909 L13.2824074,0.727272727 C13.2824074,0.327272727 12.9657407,0 12.5787037,0 L6.59722222,0 C6.21018519,0 5.89351852,0.327272727 5.89351852,0.727272727 L5.89351852,4.69090909 L1.75925926,4.69090909 C1.38981481,4.69090909 1.09074074,4.98181818 1.05555556,5.36363636 L0.175925926,17.1818182 C0.158333333,17.3818182 0.228703704,17.5818182 0.369444444,17.7272727 C0.510185185,17.8727273 0.686111111,17.9636364 0.87962963,17.9636364 L18.2962963,17.9636364 C18.2962963,17.9636364 18.2962963,17.9636364 18.2962963,17.9636364 C18.6833333,17.9636364 19,17.6363636 19,17.2363636 C19,17.1818182 19,17.1272727 18.9824074,17.0909091 Z M7.30092593,1.45454545 L11.8925926,1.45454545 L11.8925926,4.69090909 L7.30092593,4.69090909 L7.30092593,1.45454545 Z M1.63611111,16.5090909 L2.41018519,6.14545455 L5.89351852,6.14545455 L5.89351852,6.25454545 C5.89351852,6.65454545 6.21018519,6.98181818 6.59722222,6.98181818 C6.98425926,6.98181818 7.30092593,6.65454545 7.30092593,6.25454545 L7.30092593,6.14545455 L11.8925926,6.14545455 L11.8925926,6.25454545 C11.8925926,6.65454545 12.2092593,6.98181818 12.5962963,6.98181818 C12.9833333,6.98181818 13.3,6.65454545 13.3,6.25454545 L13.3,6.14545455 L16.6074074,6.14545455 L17.5398148,16.5090909 L1.63611111,16.5090909 Z" id="Shape"></path>
        </g>
        <g id="love_message" transform="translate(591.000000, 41.000000)" fill="#F061EB">
            <path d="M9.38695652,8.39325843 C9.29456522,8.39325843 9.18369565,8.37640449 9.09130435,8.34269663 C3.93586957,6.30337079 3.89891304,3.30337079 3.9173913,2.93258427 C3.9173913,1.34831461 5.4326087,0 7.24347826,0 C8.075,0 8.86956522,0.286516854 9.46086957,0.808988764 C10.0706522,0.303370787 10.9021739,0 11.7521739,0 C13.4891304,0 14.8565217,1.28089888 14.875,2.93258427 C14.8934783,3.30337079 14.8380435,6.30337079 9.6826087,8.34269663 C9.59021739,8.37640449 9.47934783,8.39325843 9.38695652,8.39325843 Z M7.24347826,1.34831461 C6.26413043,1.34831461 5.39565217,2.08988764 5.39565217,2.9494382 C5.39565217,2.96629213 5.39565217,2.98314607 5.39565217,3 C5.39565217,3.08426966 5.34021739,5.29213483 9.40543478,6.99438202 C13.4706522,5.29213483 13.4152174,3.08426966 13.4152174,3 C13.4152174,2.98314607 13.4152174,2.98314607 13.4152174,2.96629213 C13.4152174,2.05617978 12.7130435,1.36516854 11.7706522,1.36516854 C11.0869565,1.36516854 10.4217391,1.71910112 10.126087,2.2247191 C9.99673913,2.44382022 9.73804348,2.57865169 9.47934783,2.57865169 C9.22065217,2.57865169 8.96195652,2.44382022 8.8326087,2.2247191 C8.48152174,1.66853933 7.89021739,1.34831461 7.24347826,1.34831461 Z" id="Shape" fill-rule="nonzero"></path>
            <path d="M3.54782609,14.9831461 C3.43695652,14.9831461 3.32608696,14.9662921 3.21521739,14.9157303 C2.95652174,14.7977528 2.80869565,14.5617978 2.80869565,14.3089888 L2.80869565,12.741573 L0.739130435,12.741573 C0.332608696,12.741573 0,12.4382022 0,12.0674157 L0,2.39325843 C0,2.02247191 0.332608696,1.71910112 0.739130435,1.71910112 L2.55,1.71910112 C2.95652174,1.71910112 3.28913043,2.02247191 3.28913043,2.39325843 C3.28913043,2.76404494 2.95652174,3.06741573 2.55,3.06741573 L1.47826087,3.06741573 L1.47826087,11.4101124 L3.54782609,11.4101124 C3.95434783,11.4101124 4.28695652,11.7134831 4.28695652,12.0842697 L4.28695652,12.9775281 L6.39347826,11.5449438 C6.52282609,11.4606742 6.67065217,11.4101124 6.83695652,11.4101124 L15.5217391,11.4101124 L15.5217391,2.39325843 C15.5217391,2.02247191 15.8543478,1.71910112 16.2608696,1.71910112 C16.6673913,1.71910112 17,2.02247191 17,2.39325843 L17,12.0842697 C17,12.4550562 16.6673913,12.758427 16.2608696,12.758427 L7.07717391,12.758427 L3.99130435,14.8651685 C3.86195652,14.9494382 3.69565217,14.9831461 3.54782609,14.9831461 Z" id="Path"></path>
        </g>
        <g id="love_pin" transform="translate(460.000000, 373.000000)" fill="#F438B2" fill-rule="nonzero">
            <path d="M7.42771084,11.3457143 C7.3373494,11.3457143 7.22891566,11.327619 7.13855422,11.2914286 C3.54216867,9.7352381 3.45180723,7.40095238 3.46987952,7.03904762 C3.46987952,5.73619048 4.60843373,4.63238095 5.96385542,4.63238095 C6.52409639,4.63238095 7.04819277,4.83142857 7.48192771,5.15714286 C7.91566265,4.81333333 8.45783133,4.63238095 9.03614458,4.63238095 C10.3554217,4.63238095 11.3855422,5.7 11.3855422,7.05714286 C11.3855422,7.41904762 11.313253,9.75333333 7.71686747,11.3095238 C7.62650602,11.327619 7.51807229,11.3457143 7.42771084,11.3457143 Z M5.96385542,6.06190476 C5.40361446,6.06190476 4.91566265,6.51428571 4.91566265,7.03904762 C4.91566265,7.05714286 4.91566265,7.0752381 4.91566265,7.09333333 C4.91566265,7.14761905 4.89759036,8.63142857 7.42771084,9.82571429 C9.95783133,8.63142857 9.93975904,7.14761905 9.93975904,7.09333333 C9.93975904,7.0752381 9.93975904,7.0752381 9.93975904,7.05714286 C9.93975904,6.49619048 9.54216867,6.08 9.03614458,6.08 C8.65662651,6.08 8.27710843,6.29714286 8.11445783,6.6047619 C7.98795181,6.84 7.73493976,6.9847619 7.48192771,6.9847619 C7.22891566,6.9847619 6.97590361,6.84 6.84939759,6.6047619 C6.65060241,6.27904762 6.3253012,6.06190476 5.96385542,6.06190476 Z" id="Shape"></path>
            <path d="M7.44578313,19 L7.40963855,19 C7.30120482,19 7.1746988,18.9638095 7.08433735,18.9095238 C6.79518072,18.7647619 0.144578313,15.2180952 0,7.49142857 C0,7.47333333 0,7.4552381 0,7.43714286 L0,7.23809524 C0,7.20190476 0,7.16571429 0,7.14761905 C0.180722892,3.16666667 3.45180723,0 7.42771084,0 C11.4036145,0 14.6927711,3.1847619 14.8554217,7.14761905 C14.8554217,7.18380952 14.8554217,7.20190476 14.8554217,7.23809524 L14.8554217,7.43714286 C14.8554217,7.4552381 14.8554217,7.47333333 14.8554217,7.50952381 C14.6927711,15.2180952 8.06024096,18.7647619 7.78915663,18.9095238 C7.68072289,18.9638095 7.57228916,19 7.44578313,19 Z M7.42771084,1.44761905 C4.1746988,1.44761905 1.48192771,4.10761905 1.44578313,7.3647619 C1.5,13.3904762 6.1626506,16.6657143 7.42771084,17.4438095 C8.69277108,16.6657143 13.3554217,13.3542857 13.4096386,7.34666667 C13.373494,4.10761905 10.6807229,1.44761905 7.42771084,1.44761905 Z" id="Shape"></path>
        </g>
        <g id="mail_love" transform="translate(580.000000, 234.000000)" fill="#ECB257">
            <path d="M9.5,0 C4.26603774,0 0,4.26603774 0,9.5 C0,14.7339623 4.26603774,19 9.5,19 C10.6830189,19 11.8301887,18.7849057 12.9415094,18.354717 C13.3179245,18.2113208 13.4971698,17.7990566 13.3537736,17.4226415 C13.2103774,17.0462264 12.7981132,16.8669811 12.4216981,17.0103774 C11.4896226,17.3688679 10.5216981,17.5481132 9.5,17.5481132 C5.05471698,17.5660377 1.43396226,13.945283 1.43396226,9.5 C1.43396226,5.05471698 5.05471698,1.43396226 9.5,1.43396226 C13.945283,1.43396226 17.5660377,5.05471698 17.5660377,9.5 C17.5660377,10.45 17.404717,11.3820755 17.0820755,12.2783019 C17.0820755,12.2783019 17.0820755,12.2783019 17.0820755,12.2783019 C17.0820755,12.2783019 17.0820755,12.2783019 17.0820755,12.2783019 C16.9207547,12.7084906 16.5084906,13.1924528 15.8632075,13.1924528 C15.1103774,13.1924528 14.6084906,12.4396226 14.6084906,11.7584906 L14.6084906,5.87924528 C14.6084906,5.48490566 14.2858491,5.16226415 13.8915094,5.16226415 C13.4971698,5.16226415 13.1745283,5.48490566 13.1745283,5.87924528 L13.1745283,6.27358491 C12.7264151,5.9509434 12.1707547,5.77169811 11.5613208,5.77169811 C10.8264151,5.77169811 10.109434,6.05849057 9.55377358,6.5245283 C9.03396226,6.05849057 8.33490566,5.77169811 7.61792453,5.77169811 C6.00471698,5.77169811 4.64245283,7.09811321 4.6245283,8.65754717 C4.60660377,9.03396226 4.66037736,11.9556604 9.21320755,13.9273585 C9.30283019,13.9632075 9.39245283,13.9811321 9.5,13.9811321 C9.60754717,13.9811321 9.69716981,13.9632075 9.78679245,13.9273585 C11.4358491,13.2103774 12.4933962,12.3858491 13.1745283,11.5792453 C13.1924528,11.5613208 13.2103774,11.5433962 13.2283019,11.5254717 C13.1924528,11.5971698 13.1745283,11.6867925 13.1745283,11.7764151 C13.1745283,13.1566038 14.25,14.6443396 15.8632075,14.6443396 C16.9566038,14.6443396 17.9424528,13.945283 18.390566,12.8698113 C18.390566,12.8518868 18.4084906,12.8339623 18.4084906,12.8160377 C18.4084906,12.8160377 18.4084906,12.8160377 18.4084906,12.7981132 C18.8028302,11.740566 19,10.6292453 19,9.5 C19,4.26603774 14.7339623,0 9.5,0 Z M9.5,12.4754717 C6.02264151,10.8622642 6.05849057,8.8009434 6.05849057,8.71132075 C6.05849057,8.69339623 6.05849057,8.6754717 6.05849057,8.65754717 C6.05849057,7.86886792 6.7754717,7.18773585 7.61792453,7.18773585 C8.15566038,7.18773585 8.65754717,7.49245283 8.90849057,7.97641509 C9.03396226,8.20943396 9.28490566,8.35283019 9.53584906,8.35283019 C9.80471698,8.35283019 10.0377358,8.20943396 10.1632075,7.97641509 C10.3962264,7.51037736 10.9698113,7.18773585 11.5433962,7.18773585 C12.3320755,7.18773585 12.9235849,7.81509434 12.9235849,8.65754717 C12.9235849,8.6754717 12.9235849,8.6754717 12.9235849,8.69339623 C12.9415094,8.8009434 12.9773585,10.8622642 9.5,12.4754717 Z" id="Shape" fill-rule="nonzero"></path>
            <path d="M13.2103774,11.5254717 C13.1745283,11.5971698 13.1566038,11.6867925 13.1566038,11.7764151 L13.1566038,11.5792453 C13.1745283,11.5613208 13.1924528,11.5433962 13.2103774,11.5254717 Z" id="Path"></path>
        </g>
        <g id="movie" transform="translate(289.000000, 124.000000)" fill="#D4D232" fill-rule="nonzero">
            <path d="M10.6745455,5.75229358 C10.5881818,5.75229358 10.4845455,5.73486239 10.3981818,5.7 C7.42727273,4.39266055 7.32363636,2.44036697 7.34090909,2.09174312 C7.34090909,0.958715596 8.32545455,0 9.48272727,0 C9.93181818,0 10.3636364,0.156880734 10.7090909,0.418348624 C11.0718182,0.156880734 11.5209091,0 11.9872727,0 C13.1272727,0 14.0081818,0.923853211 14.0081818,2.09174312 C14.0081818,2.42293578 13.9218182,4.39266055 10.9336364,5.68256881 C10.8645455,5.73486239 10.7609091,5.75229358 10.6745455,5.75229358 Z M8.72272727,2.1440367 C8.72272727,2.26605505 8.79181818,3.36422018 10.6745455,4.28807339 C12.5572727,3.36422018 12.6263636,2.26605505 12.6436364,2.1440367 C12.6436364,2.1266055 12.6436364,2.1266055 12.6436364,2.10917431 C12.6436364,1.70825688 12.3672727,1.39449541 12.0045455,1.39449541 C11.7281818,1.39449541 11.4518182,1.55137615 11.3309091,1.77798165 C11.21,2.00458716 10.9681818,2.1440367 10.7263636,2.1440367 C10.4672727,2.1440367 10.2427273,2.00458716 10.1218182,1.77798165 C9.96636364,1.53394495 9.74181818,1.39449541 9.46545455,1.39449541 C9.06818182,1.39449541 8.70545455,1.72568807 8.70545455,2.10917431 C8.72272727,2.1266055 8.72272727,2.1266055 8.72272727,2.1440367 Z" id="Shape"></path>
            <path d="M3.33363636,5.75229358 C3.24727273,5.75229358 3.14363636,5.73486239 3.05727273,5.7 C0.103636364,4.39266055 0,2.44036697 0,2.09174312 C0,0.958715596 0.984545455,0 2.14181818,0 C2.59090909,0 3.02272727,0.156880734 3.38545455,0.418348624 C3.74818182,0.156880734 4.19727273,0 4.64636364,0 C5.78636364,0 6.66727273,0.923853211 6.66727273,2.09174312 C6.66727273,2.42293578 6.58090909,4.39266055 3.59272727,5.68256881 C3.52363636,5.73486239 3.43727273,5.75229358 3.33363636,5.75229358 Z M1.38181818,2.1440367 C1.38181818,2.26605505 1.45090909,3.36422018 3.33363636,4.28807339 C5.23363636,3.36422018 5.30272727,2.26605505 5.30272727,2.1440367 C5.30272727,2.1266055 5.30272727,2.1266055 5.30272727,2.10917431 C5.30272727,1.70825688 5.02636364,1.39449541 4.66363636,1.39449541 C4.38727273,1.39449541 4.11090909,1.55137615 3.99,1.77798165 C3.86909091,2.00458716 3.62727273,2.1440367 3.38545455,2.1440367 C3.14363636,2.1440367 2.90181818,2.00458716 2.78090909,1.77798165 C2.64272727,1.53394495 2.40090909,1.39449541 2.14181818,1.39449541 C1.72727273,1.39449541 1.38181818,1.72568807 1.38181818,2.10917431 C1.38181818,2.1266055 1.38181818,2.1266055 1.38181818,2.1440367 Z" id="Shape"></path>
            <path d="M10.5536364,18.8954128 L3.47181818,18.8954128 C1.95181818,18.8954128 0.708181818,17.6577982 0.708181818,16.1412844 L0.708181818,9.09908257 C0.708181818,7.58256881 1.95181818,6.34495413 3.47181818,6.34495413 L10.5536364,6.34495413 C12.0736364,6.34495413 13.3172727,7.58256881 13.3172727,9.09908257 L13.3172727,16.1412844 C13.3172727,17.6577982 12.0736364,18.8954128 10.5536364,18.8954128 Z M3.47181818,7.72201835 C2.71181818,7.72201835 2.09,8.33211009 2.09,9.08165138 L2.09,16.1238532 C2.09,16.8733945 2.71181818,17.4834862 3.47181818,17.4834862 L10.5536364,17.4834862 C11.3136364,17.4834862 11.9354545,16.8733945 11.9354545,16.1238532 L11.9354545,9.09908257 C11.9354545,8.34954128 11.3136364,7.73944954 10.5536364,7.73944954 L3.47181818,7.73944954 L3.47181818,7.72201835 Z" id="Shape"></path>
            <path d="M18.1536364,15.4440367 C18.1190909,15.4440367 18.1018182,15.4440367 18.0672727,15.4440367 L14.5781818,15.0431193 C14.2327273,15.0082569 13.9736364,14.7119266 13.9736364,14.3458716 L13.9736364,10.8247706 C13.9736364,10.4761468 14.2327273,10.1798165 14.5609091,10.1275229 L18.05,9.63944954 C18.24,9.60458716 18.4472727,9.67431193 18.6027273,9.79633028 C18.7581818,9.93577982 18.8445455,10.1275229 18.8445455,10.3192661 L18.8445455,14.7293578 C18.8445455,14.9211009 18.7581818,15.112844 18.62,15.2522936 C18.4990909,15.3743119 18.3263636,15.4440367 18.1536364,15.4440367 Z M15.3554545,13.7183486 L17.4627273,13.9623853 L17.4627273,11.1385321 L15.3554545,11.4348624 L15.3554545,13.7183486 Z" id="Shape"></path>
        </g>
        <g id="muffin" transform="translate(533.000000, 424.000000)" fill="#38D8CE" fill-rule="nonzero">
            <path d="M5.2278481,3.40776699 C5.24556962,3.40776699 5.24556962,3.40776699 5.26329114,3.39029126 C5.58227848,3.70485437 6.04303797,4.00194175 6.66329114,4.26407767 C6.75189873,4.29902913 6.84050633,4.31650485 6.94683544,4.31650485 C7.03544304,4.31650485 7.14177215,4.29902913 7.23037975,4.26407767 C7.85063291,4.00194175 8.29367089,3.68737864 8.63037975,3.39029126 C10.7924051,4.07184466 12.3341772,6.01165049 12.4759494,8.24854369 C12.4936709,8.61553398 12.8126582,8.91262136 13.1848101,8.91262136 C13.2025316,8.91262136 13.2202532,8.91262136 13.2202532,8.91262136 C13.6101266,8.89514563 13.9113924,8.5631068 13.8759494,8.17864078 C13.6987342,5.48737864 11.9265823,3.14563107 9.39240506,2.20194175 C9.46329114,1.93980583 9.48101266,1.74757282 9.46329114,1.64271845 C9.46329114,0.733980583 8.73670886,0.0174757282 7.83291139,0.0174757282 C7.51392405,0.0174757282 7.21265823,0.104854369 6.96455696,0.244660194 C6.7164557,0.0873786408 6.41518987,0 6.11392405,0 C5.19240506,0 4.41265823,0.733980583 4.41265823,1.62524272 C4.41265823,1.71262136 4.41265823,1.9223301 4.4835443,2.18446602 C1.93164557,3.12815534 0.159493671,5.50485437 0,8.21359223 L0,11.9708738 C0,12.7747573 0.443037975,13.4737864 1.09873418,13.8582524 L1.82531646,17.3533981 C1.89620253,17.6854369 2.17974684,17.9126214 2.5164557,17.9126214 L11.3772152,17.9126214 C11.7139241,17.9126214 11.9974684,17.6854369 12.0683544,17.3533981 L13.4860759,10.4504854 C13.521519,10.2407767 13.4683544,10.031068 13.3443038,9.87378641 C13.2025316,9.71650485 13.0075949,9.61165049 12.7949367,9.61165049 L3.72151899,9.61165049 C3.33164557,9.61165049 3.01265823,9.92621359 3.01265823,10.3106796 L3.01265823,11.9708738 C3.01265823,12.407767 2.65822785,12.7572816 2.21518987,12.7572816 C1.7721519,12.7572816 1.41772152,12.3902913 1.41772152,11.9708738 L1.41772152,8.26601942 C1.54177215,6.04660194 3.0835443,4.08932039 5.2278481,3.40776699 Z M6.11392405,1.39805825 C6.22025316,1.39805825 6.29113924,1.46796117 6.32658228,1.53786408 C6.45063291,1.76504854 6.69873418,1.90485437 6.94683544,1.90485437 C7.21265823,1.90485437 7.44303797,1.76504854 7.56708861,1.53786408 C7.62025316,1.46796117 7.72658228,1.39805825 7.85063291,1.39805825 C7.99240506,1.39805825 8.06329114,1.52038835 8.06329114,1.64271845 C8.06329114,1.66019417 8.06329114,1.6776699 8.06329114,1.69514563 C8.06329114,1.69514563 8.0278481,2.30679612 6.94683544,2.84854369 C5.93670886,2.34174757 5.84810127,1.76504854 5.83037975,1.6776699 C5.83037975,1.66019417 5.83037975,1.6776699 5.83037975,1.64271845 C5.83037975,1.52038835 5.9721519,1.39805825 6.11392405,1.39805825 Z M4.43037975,11.9708738 L4.43037975,11.0097087 L11.9265823,11.0097087 L10.7924051,16.5145631 L9.09113924,16.5145631 L9.92405063,12.5825243 C10.0126582,12.1980583 9.76455696,11.831068 9.37468354,11.761165 C8.98481013,11.6737864 8.61265823,11.9184466 8.54177215,12.3029126 L7.67341772,16.4970874 L3.0835443,16.4970874 L2.58734177,14.1029126 C3.63291139,13.9281553 4.43037975,13.0368932 4.43037975,11.9708738 Z" id="Shape"></path>
        </g>
        <g id="next_1" transform="translate(174.000000, 58.000000)" fill="#F5A623" fill-rule="nonzero">
            <path d="M17.1436893,0 C16.7592233,0 16.4446602,0.327272727 16.4446602,0.727272727 L16.4446602,5.27272727 C13.7883495,0.236363636 10.3980583,0.272727273 10.0660194,0.290909091 C8.91262136,0.290909091 7.8815534,0.8 7.21747573,1.61818182 C5.48737864,0.290909091 4.00194175,0.290909091 3.75728155,0.290909091 C1.64271845,0.290909091 0,1.94545455 0,4.07272727 C0,5.16363636 0.436893204,6.23636364 1.15339806,7 C0.436893204,7.70909091 0,8.72727273 0,9.81818182 C0,12 1.71262136,13.8545455 3.75728155,13.8545455 C4.26407767,13.8909091 4.94563107,13.6909091 5.05048544,13.6727273 C5.80194175,13.4545455 6.57087379,13.0363636 7.26990291,12.4909091 C7.95145631,13.3272727 8.96504854,13.8727273 10.0485437,13.8727273 C10.0660194,13.8727273 10.1009709,13.8727273 10.1359223,13.8727273 C10.8,13.8727273 13.9281553,13.6181818 16.4271845,8.89090909 L16.4271845,13.1454545 C16.4271845,13.5454545 16.7417476,13.8727273 17.1262136,13.8727273 C17.5106796,13.8727273 17.8252427,13.5454545 17.8252427,13.1454545 L17.8252427,0.727272727 C17.8427184,0.327272727 17.5281553,0 17.1436893,0 Z M6.32621359,9.81818182 C6.32621359,10.3090909 6.41359223,10.7636364 6.57087379,11.2 C5.08543689,12.4363636 3.87961165,12.4 3.80970874,12.4 C3.79223301,12.4 3.77475728,12.4 3.77475728,12.4 C2.4815534,12.4 1.39805825,11.2181818 1.39805825,9.81818182 C1.39805825,8.90909091 1.88737864,8.07272727 2.65631068,7.63636364 C2.88349515,7.50909091 3.02330097,7.25454545 3.02330097,7 C3.02330097,6.72727273 2.88349515,6.49090909 2.65631068,6.36363636 C1.9223301,5.94545455 1.39805825,5 1.39805825,4.07272727 C1.39805825,2.74545455 2.41165049,1.74545455 3.75728155,1.74545455 C3.77475728,1.74545455 3.79223301,1.74545455 3.79223301,1.74545455 C3.84466019,1.74545455 5.03300971,1.69090909 6.50097087,2.89090909 C6.37864078,3.25454545 6.32621359,3.65454545 6.32621359,4.07272727 C6.32621359,5.16363636 6.7631068,6.23636364 7.47961165,7 C6.74563107,7.70909091 6.32621359,8.72727273 6.32621359,9.81818182 Z M10.1533981,12.4 L10.1359223,12.4 C10.1184466,12.4 10.1009709,12.4 10.0834951,12.4 C9.22718447,12.4 8.47572816,11.8727273 8.05631068,11.1090909 C8.03883495,11.0727273 8.02135922,11.0363636 8.0038835,11 C7.82912621,10.6363636 7.72427184,10.2363636 7.72427184,9.8 C7.72427184,8.89090909 8.21359223,8.05454545 8.98252427,7.61818182 C9.20970874,7.49090909 9.34951456,7.23636364 9.34951456,6.98181818 C9.34951456,6.70909091 9.20970874,6.47272727 8.98252427,6.34545455 C8.23106796,5.94545455 7.72427184,5 7.72427184,4.05454545 C7.72427184,3.69090909 7.81165049,3.34545455 7.95145631,3.03636364 C7.96893204,3.01818182 7.96893204,2.98181818 7.98640777,2.96363636 C8.37087379,2.21818182 9.13980583,1.72727273 10.0834951,1.72727273 C10.1009709,1.72727273 10.1184466,1.72727273 10.1184466,1.72727273 L10.1533981,1.72727273 C10.5029126,1.72727273 13.4912621,1.87272727 15.7456311,7.05454545 C13.4912621,12.2545455 10.4854369,12.4 10.1533981,12.4 Z" id="Shape"></path>
        </g>
        <g id="next" transform="translate(539.000000, 148.000000)" fill="#E32664" fill-rule="nonzero">
            <path d="M17.8545455,6.76052632 C15.0181818,0.128947368 10.8545455,0.165789474 10.4727273,0.184210526 C9.27272727,0.184210526 8.2,0.7 7.49090909,1.52894737 C5.69090909,0.184210526 4.14545455,0.184210526 3.89090909,0.184210526 C1.70909091,0.184210526 0,1.87894737 0,4.01578947 C0,5.12105263 0.454545455,6.20789474 1.21818182,6.98157895 C0.454545455,7.71842105 0,8.75 0,9.85526316 C0,12.0657895 1.78181818,13.9447368 3.89090909,13.9447368 C3.90909091,13.9447368 3.94545455,13.9447368 3.98181818,13.9447368 C4.4,13.9447368 5.89090909,13.8342105 7.58181818,12.5447368 C8.30909091,13.3921053 9.34545455,13.9447368 10.4727273,13.9447368 C10.4909091,13.9447368 10.5272727,13.9447368 10.5636364,13.9447368 C11.3090909,13.9447368 15.1818182,13.6315789 17.8545455,7.35 C17.9272727,7.16578947 17.9272727,6.96315789 17.8545455,6.76052632 Z M3.96363636,12.4710526 C3.94545455,12.4710526 3.92727273,12.4710526 3.90909091,12.4710526 C2.58181818,12.4710526 1.45454545,11.2736842 1.45454545,9.85526316 C1.45454545,8.93421053 1.96363636,8.08684211 2.76363636,7.64473684 C3,7.51578947 3.14545455,7.25789474 3.14545455,7 C3.14545455,6.72368421 3,6.48421053 2.76363636,6.35526316 C2,5.93157895 1.45454545,4.97368421 1.45454545,4.01578947 C1.45454545,2.67105263 2.50909091,1.65789474 3.90909091,1.65789474 C3.92727273,1.65789474 3.94545455,1.65789474 3.96363636,1.65789474 C3.98181818,1.65789474 5.23636364,1.60263158 6.76363636,2.81842105 C6.63636364,3.18684211 6.58181818,3.59210526 6.58181818,4.01578947 C6.58181818,5.12105263 7.03636364,6.20789474 7.8,6.98157895 C7.03636364,7.71842105 6.58181818,8.75 6.58181818,9.85526316 C6.58181818,10.3526316 6.67272727,10.8131579 6.83636364,11.2736842 C5.27272727,12.5078947 4.01818182,12.4710526 3.96363636,12.4710526 Z M10.5636364,12.4710526 L10.5454545,12.4710526 C10.5272727,12.4710526 10.5090909,12.4710526 10.4909091,12.4710526 C9.61818182,12.4710526 8.81818182,11.9552632 8.38181818,11.1815789 C8.36363636,11.1447368 8.32727273,11.0894737 8.30909091,11.0526316 C8.12727273,10.6842105 8.01818182,10.2789474 8.01818182,9.85526316 C8.01818182,8.93421053 8.52727273,8.08684211 9.32727273,7.64473684 C9.56363636,7.51578947 9.70909091,7.25789474 9.70909091,7 C9.70909091,6.72368421 9.56363636,6.48421053 9.32727273,6.35526316 C8.54545455,5.95 8.01818182,4.99210526 8.01818182,4.03421053 C8.01818182,3.66578947 8.09090909,3.31578947 8.23636364,3.00263158 C8.25454545,2.96578947 8.27272727,2.94736842 8.29090909,2.91052632 C8.69090909,2.15526316 9.49090909,1.67631579 10.4727273,1.67631579 C10.4909091,1.67631579 10.5090909,1.67631579 10.5090909,1.67631579 L10.5454545,1.67631579 C10.9090909,1.67631579 14.0181818,1.82368421 16.3636364,7.07368421 C14.0363636,12.3052632 10.9272727,12.4710526 10.5636364,12.4710526 Z" id="Shape"></path>
        </g>
        <g id="notebook" transform="translate(364.000000, 83.000000)" fill="#13BDFE" fill-rule="nonzero">
            <path d="M16.1680851,0 L2.42340426,0 C2.02553191,0 1.7,0.316666667 1.7,0.703703704 L1.7,2.6212963 L0.723404255,2.6212963 C0.325531915,2.6212963 0,2.93796296 0,3.325 C0,3.71203704 0.325531915,4.0287037 0.723404255,4.0287037 L1.7,4.0287037 L1.7,8.70833333 L0.723404255,8.70833333 C0.325531915,8.70833333 0,9.025 0,9.41203704 C0,9.79907407 0.325531915,10.1157407 0.723404255,10.1157407 L1.7,10.1157407 L1.7,14.8305556 L0.723404255,14.8305556 C0.325531915,14.8305556 0,15.1472222 0,15.5342593 C0,15.9212963 0.325531915,16.237963 0.723404255,16.237963 L1.7,16.237963 L1.7,18.2962963 C1.7,18.6833333 2.02553191,19 2.42340426,19 L16.1680851,19 C16.5659574,19 16.8914894,18.6833333 16.8914894,18.2962963 L16.8914894,0.703703704 C16.8914894,0.316666667 16.5659574,0 16.1680851,0 Z M5.49787234,17.5925926 L3.14680851,17.5925926 L3.14680851,16.237963 L4.25,16.237963 C4.64787234,16.237963 4.97340426,15.9212963 4.97340426,15.5342593 C4.97340426,15.1472222 4.64787234,14.8305556 4.25,14.8305556 L3.14680851,14.8305556 L3.14680851,10.1157407 L4.25,10.1157407 C4.64787234,10.1157407 4.97340426,9.79907407 4.97340426,9.41203704 C4.97340426,9.025 4.64787234,8.70833333 4.25,8.70833333 L3.14680851,8.70833333 L3.14680851,4.0287037 L4.25,4.0287037 C4.64787234,4.0287037 4.97340426,3.71203704 4.97340426,3.325 C4.97340426,2.93796296 4.64787234,2.6212963 4.25,2.6212963 L3.14680851,2.6212963 L3.14680851,1.40740741 L5.49787234,1.40740741 L5.49787234,17.5925926 Z M15.4446809,17.5925926 L6.94468085,17.5925926 L6.94468085,1.40740741 L15.4446809,1.40740741 L15.4446809,17.5925926 Z" id="Shape"></path>
            <path d="M11.1946809,12.5083333 C11.1042553,12.5083333 10.9957447,12.4907407 10.9053191,12.4555556 C7.79468085,11.1361111 7.68617021,9.14814815 7.68617021,8.81388889 C7.68617021,7.67037037 8.71702128,6.70277778 9.9287234,6.70277778 C10.3989362,6.70277778 10.8510638,6.86111111 11.2308511,7.125 C11.6106383,6.86111111 12.0808511,6.70277778 12.5691489,6.70277778 C13.762766,6.70277778 14.6851064,7.63518519 14.6851064,8.81388889 C14.6851064,9.14814815 14.5946809,11.1361111 11.4659574,12.437963 C11.393617,12.4907407 11.2851064,12.5083333 11.1946809,12.5083333 Z M9.13297872,8.86666667 C9.13297872,8.98981481 9.20531915,10.0981481 11.1765957,11.0305556 C13.1478723,10.0981481 13.2202128,8.98981481 13.2202128,8.86666667 C13.2202128,8.84907407 13.2202128,8.84907407 13.2202128,8.83148148 C13.2202128,8.42685185 12.9308511,8.11018519 12.5510638,8.11018519 C12.2617021,8.11018519 11.9723404,8.26851852 11.8457447,8.49722222 C11.7191489,8.72592593 11.4659574,8.86666667 11.212766,8.86666667 C10.9595745,8.86666667 10.706383,8.72592593 10.5797872,8.49722222 C10.4531915,8.26851852 10.2,8.11018519 9.9287234,8.11018519 C9.51276596,8.11018519 9.13297872,8.44444444 9.13297872,8.83148148 C9.13297872,8.84907407 9.13297872,8.84907407 9.13297872,8.86666667 Z" id="Shape"></path>
        </g>
        <g id="parfume" transform="translate(87.000000, 339.000000)" fill="#2A98C2">
            <path d="M6.44657534,15.1472222 C6.35753425,15.1472222 6.25068493,15.1296296 6.16164384,15.0944444 C3.95342466,14.1444444 3.9,12.7194444 3.9,12.437963 C3.91780822,11.5407407 4.68356164,10.8018519 5.60958904,10.8018519 C5.91232877,10.8018519 6.21506849,10.8898148 6.46438356,11.0305556 C6.73150685,10.8722222 7.03424658,10.8018519 7.3369863,10.8018519 C8.24520548,10.8018519 8.95753425,11.5231481 8.97534247,12.437963 C8.99315068,12.7194444 8.92191781,14.162037 6.71369863,15.0944444 C6.64246575,15.1296296 6.53561644,15.1472222 6.44657534,15.1472222 Z M5.32465753,12.4907407 C5.32465753,12.5962963 5.43150685,13.1592593 6.44657534,13.6694444 C7.53287671,13.1064815 7.56849315,12.5083333 7.56849315,12.4907407 C7.56849315,12.4731481 7.56849315,12.4555556 7.56849315,12.437963 C7.56849315,12.3148148 7.49726027,12.1916667 7.35479452,12.1916667 C7.24794521,12.1916667 7.14109589,12.262037 7.10547945,12.3324074 C6.98082192,12.5611111 6.73150685,12.7018519 6.48219178,12.7018519 C6.23287671,12.7018519 5.98356164,12.5611111 5.85890411,12.3324074 C5.82328767,12.262037 5.75205479,12.1916667 5.64520548,12.1916667 C5.50273973,12.1916667 5.36027397,12.3148148 5.36027397,12.437963 C5.32465753,12.4907407 5.32465753,12.4731481 5.32465753,12.4907407 Z" id="Shape" fill-rule="nonzero"></path>
            <path d="M12.1808219,19 L0.712328767,19 C0.320547945,19 0,18.6833333 0,18.2962963 L0,7.65277778 C0,7.26574074 0.320547945,6.94907407 0.712328767,6.94907407 L12.1808219,6.94907407 C12.5726027,6.94907407 12.8931507,7.26574074 12.8931507,7.65277778 L12.8931507,18.2962963 C12.8931507,18.6833333 12.5726027,19 12.1808219,19 Z M1.42465753,17.5925926 L11.4684932,17.5925926 L11.4684932,8.35648148 L1.42465753,8.35648148 L1.42465753,17.5925926 Z" id="Shape" fill-rule="nonzero"></path>
            <path d="M8.24520548,0 L4.63013699,0 C4.23835616,0 3.91780822,0.316666667 3.91780822,0.703703704 L3.91780822,5.34814815 C3.91780822,5.73518519 4.23835616,6.05185185 4.63013699,6.05185185 L8.24520548,6.05185185 C8.6369863,6.05185185 8.95753425,5.73518519 8.95753425,5.34814815 L8.95753425,0.703703704 C8.95753425,0.316666667 8.65479452,0 8.24520548,0 Z M7.53287671,4.64444444 L5.34246575,4.64444444 L5.34246575,1.40740741 L7.53287671,1.40740741 L7.53287671,4.64444444 Z" id="Shape" fill-rule="nonzero"></path>
            <path d="M7.10547945,3.02592593 C7.10547945,3.37777778 6.80273973,3.67685185 6.44657534,3.67685185 C6.09041096,3.67685185 5.78767123,3.37777778 5.78767123,3.02592593 C5.78767123,2.65648148 6.09041096,2.375 6.44657534,2.375 C6.80273973,2.375 7.10547945,2.65648148 7.10547945,3.02592593 Z" id="Path"></path>
            <path d="M12.1808219,5.26018519 C12.0027397,5.26018519 11.8246575,5.18981481 11.6821918,5.04907407 L10.1328767,3.51851852 C9.99041096,3.37777778 9.91917808,3.20185185 9.91917808,3.02592593 C9.91917808,2.85 9.99041096,2.65648148 10.1328767,2.51574074 L11.6821918,0.985185185 C11.9671233,0.703703704 12.4123288,0.703703704 12.6972603,0.985185185 C12.9821918,1.26666667 12.9821918,1.70648148 12.6972603,1.98796296 L11.6465753,3.02592593 L12.6972603,4.06388889 C12.9821918,4.34537037 12.9821918,4.78518519 12.6972603,5.06666667 C12.5369863,5.18981481 12.3589041,5.26018519 12.1808219,5.26018519 Z" id="Path"></path>
        </g>
        <g id="play_heart" transform="translate(162.000000, 244.000000)" fill="#E32626" fill-rule="nonzero">
            <path d="M4.17142857,13.9447368 C4.13333333,13.9447368 4.0952381,13.9447368 4.07619048,13.9447368 C1.86666667,13.9263158 0,12.0657895 0,9.85526316 C0,8.75 0.476190476,7.71842105 1.27619048,6.98157895 C0.476190476,6.22631579 0,5.13947368 0,4.01578947 C0,1.87894737 1.79047619,0.202631579 4.07619048,0.184210526 C4.4952381,0.165789474 8.83809524,0.128947368 11.8095238,6.76052632 C11.8857143,6.94473684 11.8857143,7.16578947 11.8095238,7.35 C9.00952381,13.6315789 4.95238095,13.9447368 4.17142857,13.9447368 Z M4.17142857,1.65789474 L4.13333333,1.65789474 C4.11428571,1.65789474 4.0952381,1.65789474 4.0952381,1.65789474 C2.62857143,1.65789474 1.52380952,2.67105263 1.52380952,4.01578947 C1.52380952,4.97368421 2.0952381,5.93157895 2.8952381,6.33684211 C3.14285714,6.46578947 3.2952381,6.72368421 3.2952381,6.98157895 C3.2952381,7.23947368 3.14285714,7.49736842 2.8952381,7.62631579 C2.03809524,8.05 1.52380952,8.89736842 1.52380952,9.83684211 C1.52380952,11.2552632 2.7047619,12.4526316 4.0952381,12.4526316 C4.11428571,12.4526316 4.13333333,12.4526316 4.15238095,12.4526316 L4.17142857,12.4526316 C4.53333333,12.4526316 7.80952381,12.3052632 10.2666667,7.05526316 C7.80952381,1.80526316 4.55238095,1.65789474 4.17142857,1.65789474 Z" id="Shape"></path>
        </g>
        <g id="repeat" transform="translate(422.000000, 226.000000)" fill="#269FE3" fill-rule="nonzero">
            <path d="M9.46415094,17.5183486 C5.03679245,17.5183486 1.43396226,14.0146789 1.43396226,9.69174312 C1.43396226,8.08807339 1.93584906,6.55412844 2.85,5.24678899 C2.92169811,5.36880734 3.01132075,5.4733945 3.11886792,5.57798165 C3.53113208,5.97889908 4.10471698,6.22293578 4.71415094,6.22293578 C5.28773585,6.22293578 5.8254717,6.01376147 6.21981132,5.63027523 C6.47075472,5.40366972 7.81509434,3.93944954 6.57830189,0.888990826 C6.50660377,0.714678899 6.36320755,0.575229358 6.18396226,0.505504587 C5.32358491,0.174311927 4.4990566,0 3.76415094,0 C2.22264151,0 1.45188679,0.697247706 1.30849057,0.871559633 C0.466037736,1.70825688 0.448113208,2.98073394 1.27264151,3.78256881 C1.45188679,3.95688073 1.6490566,4.09633028 1.86415094,4.20091743 C0.645283019,5.78715596 0,7.68715596 0,9.69174312 C0,14.7642202 4.24811321,18.8954128 9.46415094,18.8954128 C9.85849057,18.8954128 10.1811321,18.5816514 10.1811321,18.1981651 C10.1811321,17.8321101 9.85849057,17.5183486 9.46415094,17.5183486 Z M2.33018868,1.84770642 C2.34811321,1.83027523 2.34811321,1.83027523 2.36603774,1.81284404 C2.41981132,1.76055046 2.83207547,1.39449541 3.76415094,1.39449541 C4.24811321,1.39449541 4.78584906,1.49908257 5.37735849,1.69082569 C6.09433962,3.69541284 5.34150943,4.5146789 5.25188679,4.60183486 C5.23396226,4.61926606 5.23396226,4.61926606 5.21603774,4.63669725 C5.09056604,4.7587156 4.91132075,4.82844037 4.71415094,4.82844037 C4.4990566,4.82844037 4.28396226,4.7412844 4.14056604,4.60183486 C3.94339623,4.41009174 3.87169811,4.14862385 3.96132075,3.88715596 C4.03301887,3.64311927 3.97924528,3.36422018 3.78207547,3.18990826 C3.63867925,3.05045872 3.45943396,2.98073394 3.28018868,2.98073394 C3.20849057,2.98073394 3.13679245,2.99816514 3.06509434,3.01559633 C3.01132075,3.03302752 2.93962264,3.05045872 2.88584906,3.05045872 C2.67075472,3.05045872 2.45566038,2.96330275 2.29433962,2.80642202 C2.0254717,2.54495413 2.04339623,2.1266055 2.33018868,1.84770642 Z" id="Shape"></path>
            <path d="M17.0641509,14.7119266 C18.2830189,13.1256881 18.9283019,11.2256881 18.9283019,9.20366972 C18.9462264,4.13119266 14.6981132,0 9.46415094,0 C9.06981132,0 8.74716981,0.313761468 8.74716981,0.697247706 C8.74716981,1.08073394 9.06981132,1.39449541 9.46415094,1.39449541 C13.8915094,1.39449541 17.4943396,4.89816514 17.4943396,9.20366972 C17.4943396,10.8073394 16.9924528,12.3412844 16.0783019,13.6486239 C16.0066038,13.5266055 15.9169811,13.4220183 15.809434,13.3174312 C15.3971698,12.9165138 14.8235849,12.6724771 14.2141509,12.6724771 C13.640566,12.6724771 13.1028302,12.8816514 12.7084906,13.2651376 C12.4575472,13.4917431 11.1132075,14.9559633 12.35,18.006422 C12.4216981,18.1807339 12.5650943,18.3201835 12.7443396,18.3899083 C13.604717,18.7211009 14.4292453,18.8954128 15.1641509,18.8954128 C16.6877358,18.8954128 17.4584906,18.1981651 17.6198113,18.0238532 C18.4622642,17.187156 18.4801887,15.9146789 17.6556604,15.0954128 C17.4943396,14.9559633 17.2792453,14.8165138 17.0641509,14.7119266 Z M16.6160377,17.0651376 C16.5981132,17.0825688 16.5981132,17.0825688 16.5801887,17.1 C16.5264151,17.1522936 16.0962264,17.5183486 15.1820755,17.5183486 C14.6981132,17.5183486 14.1603774,17.4137615 13.5688679,17.2220183 C12.8518868,15.2174312 13.604717,14.3981651 13.6943396,14.3110092 C13.7122642,14.293578 13.7122642,14.293578 13.7301887,14.2761468 C13.8556604,14.1541284 14.0349057,14.0844037 14.2320755,14.0844037 C14.4471698,14.0844037 14.6622642,14.1715596 14.8056604,14.3110092 C15.0028302,14.5027523 15.0745283,14.7642202 14.9849057,15.0256881 C14.9132075,15.2697248 14.9669811,15.5486239 15.1641509,15.7229358 C15.3433962,15.8972477 15.6301887,15.9669725 15.8811321,15.8972477 C15.9349057,15.8798165 16.0066038,15.8623853 16.0603774,15.8623853 C16.2754717,15.8623853 16.490566,15.9495413 16.6518868,16.106422 C16.9207547,16.3678899 16.9028302,16.7862385 16.6160377,17.0651376 Z" id="Shape"></path>
        </g>
        <g id="ring" transform="translate(399.000000, 321.000000)" fill="#26E3C8" fill-rule="nonzero">
            <path d="M8.38205128,5.23396226 L11.0923077,2.47358491 C11.2358974,2.33018868 11.3076923,2.1509434 11.3076923,1.95377358 C11.3076923,1.75660377 11.2179487,1.57735849 11.0923077,1.45188679 L9.76410256,0.197169811 C9.6025641,0.0716981132 9.42307692,0 9.24358974,0 L4.3974359,0 C4.21794872,0 4.02051282,0.0716981132 3.89487179,0.21509434 L2.63846154,1.45188679 C2.49487179,1.59528302 2.42307692,1.7745283 2.42307692,1.95377358 C2.42307692,2.1509434 2.49487179,2.33018868 2.63846154,2.45566038 L5.42051282,5.23396226 C4.14615385,5.52075472 2.97948718,6.14811321 2.04615385,7.09811321 C0.717948718,8.4245283 0,10.1632075 0,12.009434 C0,15.8273585 3.12307692,18.9462264 6.94615385,18.9462264 C10.7692308,18.9462264 13.8923077,15.845283 13.8923077,12.009434 C13.8923077,8.6754717 11.5230769,5.89716981 8.38205128,5.23396226 Z M4.14615385,1.95377358 L4.68461538,1.43396226 L8.95641026,1.43396226 L9.54871795,1.98962264 L7.57435897,3.97924528 L7.55641026,2.95754717 C7.55641026,2.56320755 7.23333333,2.25849057 6.83846154,2.25849057 C6.44358974,2.25849057 6.12051282,2.58113208 6.12051282,2.9754717 L6.13846154,3.96132075 L4.14615385,1.95377358 Z M6.94615385,17.5122642 C3.91282051,17.5122642 1.43589744,15.0566038 1.43589744,12.009434 C1.43589744,10.5396226 2.01025641,9.15943396 3.05128205,8.11981132 C4.09230769,7.08018868 5.47435897,6.50660377 6.94615385,6.50660377 C9.97948718,6.50660377 12.4564103,8.98018868 12.4564103,12.009434 C12.4564103,15.0566038 9.97948718,17.5122642 6.94615385,17.5122642 Z" id="Shape"></path>
        </g>
        <g id="share_love" transform="translate(423.000000, 23.000000)" fill="#F0BC3B" fill-rule="nonzero">
            <path d="M17.9307692,12.792233 C17.9307692,11.2194175 16.7365385,9.97864078 15.2134615,9.97864078 C14.5038462,9.97864078 13.8115385,10.2582524 13.275,10.7126214 C12.7730769,10.2407767 12.0980769,9.97864078 11.3884615,9.97864078 C10.125,9.97864078 9.03461538,10.8174757 8.65384615,11.9359223 L6.43846154,9.6815534 C6.68076923,9.1223301 6.69807692,8.68543689 6.69807692,8.54563107 C6.69807692,8.4407767 6.69807692,8.33592233 6.68076923,8.24854369 L9.48461538,5.41747573 C10.0557692,5.9592233 10.8346154,6.5184466 11.9423077,7.00776699 C12.0288462,7.04271845 12.1153846,7.06019417 12.2192308,7.06019417 C12.3057692,7.06019417 12.4096154,7.04271845 12.4961538,7.00776699 C16.2865385,5.34757282 16.3557692,2.86601942 16.3557692,2.51650485 C16.3557692,1.10097087 15.2826923,3.10431292e-16 13.9326923,3.10431292e-16 C13.3269231,0 12.7384615,0.227184466 12.2884615,0.594174757 C11.8384615,0.209708738 11.2673077,0 10.6615385,0 C9.27692308,0 8.1,1.15339806 8.1,2.51650485 C8.1,2.69126214 8.11730769,3.42524272 8.61923077,4.31650485 L6.00576923,6.95533981 C5.65961538,6.6407767 5.19230769,6.44854369 4.67307692,6.44854369 C4.20576923,6.44854369 3.75576923,6.60582524 3.39230769,6.86796117 C3.04615385,6.60582524 2.61346154,6.44854369 2.14615385,6.44854369 C0.986538462,6.44854369 0.0173076923,7.40970874 0,8.54563107 C0,8.70291262 0,9.24466019 0.363461538,9.92621359 C0.865384615,10.8349515 1.78269231,11.6038835 3.08076923,12.1631068 C3.16730769,12.1980583 3.25384615,12.215534 3.35769231,12.215534 C3.46153846,12.215534 3.54807692,12.1980583 3.63461538,12.1631068 C4.55192308,11.761165 5.19230769,11.3067961 5.64230769,10.8524272 L8.75769231,13.9980583 C9.13846154,15.0990291 10.1596154,16.7067961 12.9807692,17.9300971 C13.0673077,17.9650485 13.1538462,17.9825243 13.2576923,17.9825243 C13.3615385,17.9825243 13.4480769,17.9650485 13.5346154,17.9300971 C17.8961538,16.007767 17.9480769,13.1592233 17.9307692,12.792233 Z M9.48461538,2.56893204 C9.48461538,2.55145631 9.48461538,2.53398058 9.48461538,2.51650485 C9.48461538,1.9223301 10.0384615,1.39805825 10.6615385,1.39805825 C11.0769231,1.39805825 11.4576923,1.62524272 11.6480769,2.00970874 C11.7692308,2.2368932 12.0115385,2.37669903 12.2538462,2.37669903 C12.5134615,2.37669903 12.7384615,2.2368932 12.8596154,2.00970874 C13.0673077,1.64271845 13.5,1.39805825 13.9326923,1.39805825 C14.5211538,1.39805825 14.9711538,1.88737864 14.9711538,2.51650485 L14.9711538,2.55145631 C14.9711538,2.62135922 14.9884615,4.26407767 12.2192308,5.57475728 C11.1461538,5.06796117 10.4884615,4.50873786 10.0903846,4.00194175 C10.0903846,4.00194175 10.0903846,4.00194175 10.0903846,4.00194175 C10.0903846,4.00194175 10.0903846,4.00194175 10.0903846,4.00194175 C10.0730769,3.96699029 10.0384615,3.93203883 10.0211538,3.91456311 C10.0211538,3.91456311 10.0211538,3.91456311 10.0211538,3.91456311 C9.46730769,3.18058252 9.48461538,2.6038835 9.48461538,2.56893204 Z M5.31346154,8.59805825 C5.31346154,8.66796117 5.29615385,8.96504854 5.05384615,9.36699029 C5.05384615,9.36699029 5.03653846,9.38446602 5.03653846,9.38446602 C5.01923077,9.40194175 5.00192308,9.41941748 5.00192308,9.45436893 C5.00192308,9.45436893 5.00192308,9.45436893 5.00192308,9.45436893 C4.74230769,9.83883495 4.24038462,10.3106796 3.375,10.7475728 C1.45384615,9.83883495 1.38461538,8.72038835 1.38461538,8.59805825 C1.38461538,8.58058252 1.38461538,8.58058252 1.38461538,8.5631068 C1.38461538,8.17864078 1.73076923,7.84660194 2.14615385,7.84660194 C2.40576923,7.84660194 2.64807692,7.98640777 2.76923077,8.23106796 C2.89038462,8.45825243 3.13269231,8.59805825 3.375,8.59805825 C3.63461538,8.59805825 3.87692308,8.45825243 3.98076923,8.23106796 C4.10192308,8.0038835 4.37884615,7.84660194 4.65576923,7.84660194 C5.01923077,7.84660194 5.29615385,8.14368932 5.29615385,8.5631068 C5.31346154,8.58058252 5.31346154,8.58058252 5.31346154,8.59805825 Z M13.2230769,16.5320388 C9.86538462,14.9592233 9.9,12.9495146 9.9,12.8621359 C9.9,12.8446602 9.9,12.8271845 9.9,12.8097087 C9.9,12.0407767 10.5923077,11.376699 11.4057692,11.376699 C11.9423077,11.376699 12.4096154,11.6737864 12.6692308,12.1456311 C12.7903846,12.3728155 13.0326923,12.5126214 13.275,12.5126214 C13.5346154,12.5126214 13.7769231,12.3728155 13.8807692,12.1456311 C14.1230769,11.6912621 14.6596154,11.376699 15.2134615,11.376699 C15.975,11.376699 16.5461538,11.9883495 16.5461538,12.8097087 C16.5461538,12.8271845 16.5461538,12.8446602 16.5461538,12.8621359 C16.5461538,12.8796117 16.5980769,14.9417476 13.2230769,16.5320388 Z" id="Shape"></path>
        </g>
        <g id="the_-gift" transform="translate(306.000000, 354.000000)" fill="#6780F9" fill-rule="nonzero">
            <path d="M19,7.15607477 C19,6.76542056 18.6803738,6.44579439 18.2897196,6.44579439 L10.4233645,6.44579439 C13.388785,4.9364486 13.4598131,2.87663551 13.4598131,2.53925234 C13.4598131,1.20747664 12.4476636,0.159813084 11.1514019,0.159813084 C10.5831776,0.159813084 10.0504673,0.355140187 9.62429907,0.674766355 C9.19813084,0.372897196 8.68317757,0.177570093 8.13271028,0.177570093 C6.80093458,0.177570093 5.68224299,1.26074766 5.68224299,2.55700935 C5.68224299,2.89439252 5.75327103,4.9364486 8.71869159,6.4635514 L0.710280374,6.4635514 C0.319626168,6.4635514 0,6.78317757 0,7.17383178 L0,10.0859813 C0,10.1037383 0,10.1214953 0,10.1214953 C0,10.1392523 0,10.1392523 0,10.1570093 L0,18.1476636 C0,18.5383178 0.319626168,18.8579439 0.710280374,18.8579439 L18.2897196,18.8579439 C18.6803738,18.8579439 19,18.5383178 19,18.1476636 L19,10.1570093 C19,10.1392523 19,10.1392523 19,10.1214953 C19,10.1037383 19,10.0859813 19,10.0859813 L19,7.15607477 Z M1.42056075,7.86635514 L8.78971963,7.86635514 L8.78971963,9.35794393 L1.42056075,9.35794393 L1.42056075,7.86635514 Z M1.42056075,10.8672897 L8.78971963,10.8672897 L8.78971963,17.4373832 L1.42056075,17.4373832 L1.42056075,10.8672897 Z M7.10280374,2.61028037 C7.10280374,2.59252336 7.10280374,2.57476636 7.10280374,2.55700935 C7.10280374,2.04205607 7.58224299,1.59813084 8.13271028,1.59813084 C8.48785047,1.59813084 8.82523364,1.79345794 8.98504673,2.11308411 C9.10934579,2.34392523 9.34018692,2.48598131 9.60654206,2.48598131 C9.8728972,2.48598131 10.1037383,2.34392523 10.2280374,2.11308411 C10.3878505,1.81121495 10.7607477,1.59813084 11.1336449,1.59813084 C11.6485981,1.59813084 12.0214953,2.00654206 12.0214953,2.55700935 C12.0214953,2.57476636 12.0214953,2.59252336 12.0214953,2.61028037 C12.0214953,2.62803738 12.0570093,4.10186916 9.55327103,5.29158879 C7.08504673,4.11962617 7.10280374,2.6635514 7.10280374,2.61028037 Z M17.5794393,17.4373832 L10.2102804,17.4373832 L10.2102804,10.8672897 L17.5794393,10.8672897 L17.5794393,17.4373832 Z M17.5794393,9.35794393 L10.2102804,9.35794393 L10.2102804,7.86635514 L17.5794393,7.86635514 L17.5794393,9.35794393 Z" id="Shape"></path>
        </g>
        <g id="wi_fi_heart" transform="translate(233.000000, 411.000000)" fill="#B82AC2">
            <path d="M6.94615385,18.9462264 C6.85641026,18.9462264 6.74871795,18.9283019 6.65897436,18.8924528 C0.233333333,16.1141509 0.233333333,12.0632075 0.251282051,11.6150943 C0.269230769,9.53584906 2.08205128,7.77924528 4.23589744,7.77924528 C5.31282051,7.77924528 6.31794872,8.22735849 7.03589744,8.98018868 C7.77179487,8.24528302 8.83076923,7.77924528 9.92564103,7.77924528 C12.0076923,7.77924528 13.6589744,9.46415094 13.6589744,11.6150943 C13.6769231,12.045283 13.6769231,16.1141509 7.25128205,18.8924528 C7.14358974,18.9283019 7.05384615,18.9462264 6.94615385,18.9462264 Z M4.23589744,9.21320755 C2.85384615,9.21320755 1.68717949,10.3245283 1.68717949,11.6330189 C1.68717949,11.6509434 1.68717949,11.6688679 1.68717949,11.6867925 C1.68717949,11.8122642 1.57948718,15.0207547 6.94615385,17.4584906 C12.3128205,15.0207547 12.2230769,11.8301887 12.2051282,11.6867925 C12.2051282,11.6688679 12.2051282,11.6509434 12.2051282,11.6509434 C12.2051282,10.2707547 11.2179487,9.23113208 9.90769231,9.23113208 C8.97435897,9.23113208 8.04102564,9.76886792 7.64615385,10.5216981 C7.52051282,10.754717 7.26923077,10.8981132 7.01794872,10.8981132 C6.74871795,10.8981132 6.51538462,10.754717 6.38974359,10.5216981 C5.95897436,9.71509434 5.13333333,9.21320755 4.23589744,9.21320755 Z" id="Shape" fill-rule="nonzero"></path>
            <path d="M4.02051282,6.34528302 C3.84102564,6.34528302 3.66153846,6.27358491 3.51794872,6.14811321 C3.23076923,5.87924528 3.23076923,5.41320755 3.5,5.12641509 C4.41538462,4.17641509 5.65384615,3.65660377 6.96410256,3.65660377 C8.25641026,3.65660377 9.45897436,4.15849057 10.374359,5.07264151 C10.6615385,5.35943396 10.6615385,5.80754717 10.374359,6.09433962 C10.0871795,6.38113208 9.63846154,6.38113208 9.35128205,6.09433962 C8.70512821,5.4490566 7.86153846,5.10849057 6.96410256,5.10849057 C6.03076923,5.10849057 5.16923077,5.48490566 4.52307692,6.14811321 C4.3974359,6.27358491 4.21794872,6.34528302 4.02051282,6.34528302 Z" id="Path"></path>
            <path d="M0.717948718,4.03301887 C0.538461538,4.03301887 0.358974359,3.96132075 0.215384615,3.81792453 C-0.0717948718,3.53113208 -0.0717948718,3.08301887 0.215384615,2.79622642 C2.01025641,1.00377358 4.41538462,0 6.98205128,0 C9.51282051,0 11.9179487,0.985849057 13.7128205,2.77830189 C14,3.06509434 14,3.51320755 13.7128205,3.8 C13.425641,4.08679245 12.9769231,4.08679245 12.6897436,3.8 C11.1641026,2.27641509 9.13589744,1.43396226 6.98205128,1.43396226 C4.81025641,1.43396226 2.76410256,2.27641509 1.23846154,3.81792453 C1.09487179,3.96132075 0.897435897,4.03301887 0.717948718,4.03301887 Z" id="Path"></path>
        </g>
    </g>
</svg>